<?xml version="1.0" encoding="utf-8"?>
<!-- Generator: Adobe Illustrator 26.0.1, SVG Export Plug-In . SVG Version: 6.00 Build 0)  -->
<svg version="1.1" id="Capa_1" xmlns="http://www.w3.org/2000/svg" xmlns:xlink="http://www.w3.org/1999/xlink" x="0px" y="0px"
	 viewBox="0 0 189.22 204.51" style="enable-background:new 0 0 189.22 204.51;" xml:space="preserve">
<style type="text/css">
	.st0{fill:#3D150F;}
	.st1{fill:#FFFFFF;}
</style>
<g>
	<path class="st0" d="M96.38,123.58c1.99-1.66,3.56-3.61,4.46-6.04c0.33-0.88,0.49-1.78,0.34-2.72c-0.18-1.12-0.82-1.92-1.73-2.07
		c-1.21-0.19-2.13,0.42-2.97,1.19c0.15,0,0.28-0.06,0.42-0.09c0.53-0.13,1.05-0.31,1.59-0.35c0.88-0.08,1.39,0.32,1.51,1.21
		c0.07,0.51,0.05,1.06-0.07,1.57c-0.36,1.56-1.12,2.96-1.89,4.34C97.5,121.6,96.94,122.59,96.38,123.58 M109.32,126.42
		c-0.03-0.01-0.06-0.03-0.09-0.04c-1.02,0.86-2,1.77-3.06,2.57c-2.16,1.63-4.55,2.53-7.28,1.83c-1.45-0.37-2.84-0.96-4.25-1.45
		c-0.11-0.04-0.21-0.08-0.32-0.11c-0.03,0.05-0.06,0.11-0.09,0.17c0.86,0.56,1.69,1.2,2.6,1.68c2.28,1.2,4.64,1.58,7.1,0.52
		c1.63-0.7,2.96-1.8,4.04-3.18C108.46,127.77,108.87,127.08,109.32,126.42 M76.13,144.22c-0.15,0.05-0.31,0.12-0.46,0.15
		c-0.79,0.16-1.57,0.39-2.37,0.44c-1.06,0.07-1.86-0.46-2.25-1.45c-0.25-0.62-0.46-1.28-0.55-1.94c-0.39-2.77-0.08-5.54,0.16-8.3
		c0.09-1.01,0.2-2.01,0.3-3.06c-0.08,0.05-0.12,0.07-0.13,0.09c-1.19,3.36-1.9,6.8-1.66,10.39c0.08,1.2,0.32,2.36,0.93,3.41
		c0.64,1.1,1.59,1.71,2.89,1.65C74.21,145.55,75.23,145,76.13,144.22 M57.61,133.03c-0.08,0.12-0.14,0.2-0.19,0.28
		c-0.14,0.24-0.29,0.48-0.4,0.74c-1.83,4.03-2.77,8.26-2.67,12.69c0.02,1.11,0.25,2.24,0.57,3.3c0.49,1.63,1.68,2.42,3.09,2.17
		c1.11-0.19,2-0.8,2.81-1.56c-0.18,0.03-0.33,0.11-0.49,0.17c-0.65,0.23-1.29,0.53-1.96,0.67c-1.14,0.24-1.91-0.24-2.33-1.34
		c-0.4-1.05-0.5-2.15-0.51-3.26c-0.03-3.49,0.54-6.91,1.23-10.31C56.99,135.41,57.31,134.25,57.61,133.03 M143.68,95.98
		c0.53-0.11,1.05-0.27,1.58-0.33c0.7-0.08,0.87,0.12,0.73,0.81c-0.49,2.42-1.03,4.84-1.47,7.28c-0.3,1.66-0.38,3.35-0.06,5.03
		c0.36,1.91,1.4,2.84,3.34,2.97c1.93,0.13,3.49-0.7,4.9-1.91c0.09-0.07,0.15-0.17,0.23-0.25c-0.78,0.34-1.51,0.72-2.28,1
		c-1.13,0.41-2.29,0.5-3.45,0.1c-0.78-0.27-1.35-0.75-1.45-1.59c-0.12-1.04-0.29-2.11-0.2-3.15c0.2-2.3,0.56-4.59,0.84-6.88
		c0.12-0.97,0.24-1.93,0.3-2.9c0.04-0.56-0.28-0.93-0.77-0.98C145.04,95.08,144.34,95.51,143.68,95.98 M116.93,104.74
		c-2.32,2.69-4.11,5.7-4.87,9.24c-0.47,2.2-0.37,4.36,0.58,6.44c1.42,3.11,4.16,4.65,7.54,4.19c1.59-0.21,3.07-0.78,4.46-1.56
		c0.41-0.23,0.8-0.48,1.2-0.73c-0.2-0.03-0.34,0.02-0.49,0.09c-1.38,0.6-2.81,1.07-4.31,1.27c-2.59,0.35-4.88-0.15-6.5-2.4
		c-0.93-1.29-1.43-2.75-1.53-4.33c-0.17-2.55,0.48-4.95,1.5-7.25C115.25,108.01,116.13,106.38,116.93,104.74 M159.88,81.91
		c-0.04,0-0.07-0.01-0.11-0.02c-0.04,0.25-0.1,0.51-0.11,0.76c-0.16,2.22-0.39,4.45-0.47,6.67c-0.13,3.79,0.01,7.57,0.83,11.29
		c0.28,1.28,0.66,2.53,1.42,3.62c0.49,0.7,1.12,1.18,2,1.23c2.67,0.17,4.52-1.29,6.14-3.16c-0.2,0.09-0.38,0.23-0.55,0.37
		c-1.29,1.01-2.68,1.83-4.36,1.98c-1.47,0.13-2.13-0.28-2.71-1.63c-0.63-1.44-0.96-2.97-1.09-4.51c-0.31-3.64-0.53-7.28-0.75-10.92
		C159.99,85.71,159.96,83.81,159.88,81.91 M85.82,137.74c-1.71-13.89-0.7-27.42,5.16-40.34c-2.51,3.55-5.23,10.06-6.38,17.81
		C83.48,122.8,83.88,130.31,85.82,137.74 M116.95,115.85c0.99-0.43,1.79-1.02,2.48-1.77c1.67-1.81,2.74-3.94,3.26-6.35
		c0.22-1,0.37-2.02,0.12-3.04c-0.2-0.81-0.68-1.05-1.44-0.72c-0.99,0.43-1.7,1.18-2.27,2.07c-1.34,2.08-2.02,4.4-2.3,6.83
		C116.69,113.84,116.63,114.82,116.95,115.85 M88.21,119.23c0.03,0.01,0.06,0.02,0.09,0.03c0.09-0.15,0.18-0.29,0.27-0.44
		c1.79-3.2,3.24-6.56,4.51-10c0.97-2.63,1.91-5.28,2.25-8.08c0.1-0.8,0.05-1.65-0.07-2.45c-0.09-0.64-0.62-0.91-1.19-0.61
		c-0.49,0.26-0.95,0.66-1.27,1.11c-0.89,1.25-1.36,2.71-1.79,4.16c-1.36,4.62-2.05,9.37-2.59,14.14
		C88.35,117.8,88.29,118.51,88.21,119.23 M58.52,142.78c0.01,1.48,0.09,2.91,0.63,4.27c0.58,1.45,1.74,1.74,2.94,0.75
		c0.18-0.15,0.36-0.3,0.49-0.49c0.48-0.73,0.99-1.45,1.37-2.22c1.37-2.78,2.11-5.75,2.48-8.82c0.18-1.54,0.26-3.1-0.2-4.62
		c-0.45-1.5-1.6-1.99-3.02-1.3c-1.04,0.51-1.71,1.39-2.25,2.37C59.25,135.87,58.61,139.27,58.52,142.78 M47.54,170.27
		c1.62-0.56,3.31-1.21,5.04-1.73c4.92-1.46,9.98-1.93,15.08-2.07c6.2-0.17,12.39,0.04,18.58,0.39c6.81,0.39,13.62,0.82,20.44,1.18
		c7.62,0.4,15.25,0.62,22.89,0.29c6.01-0.26,11.79-1.45,17.33-3.81c7.26-3.09,13.59-7.53,19.03-13.24
		c5.05-5.31,8.92-11.37,11.5-18.24c2.38-6.32,3.44-12.91,3.8-19.62c0.35-6.46-0.07-12.88-1.18-19.25
		c-1.03-5.92-2.59-11.7-4.68-17.33c-0.34-0.92-0.72-1.83-1.07-2.74c-0.06,0.19-0.01,0.34,0.04,0.49c0.96,2.97,2.02,5.91,2.85,8.91
		c1.9,6.9,2.99,13.94,3.29,21.1c0.29,6.94-0.29,13.79-1.8,20.57c-1.1,4.91-2.79,9.61-5.24,14.01c-5.45,9.77-13.19,17.19-23.08,22.38
		c-4.71,2.47-9.68,4.23-14.96,5.04c-4.01,0.61-8.06,0.73-12.11,0.76c-11.01,0.1-22-0.67-32.99-1.15c-6.98-0.31-13.97-0.6-20.96-0.37
		c-5.01,0.17-9.99,0.64-14.87,1.9C52.04,168.37,49.69,169.2,47.54,170.27 M175.8,95.26c-0.53,1.24-0.98,2.43-1.53,3.56
		c-1.48,3.02-3.49,5.6-6.43,7.35c-1.34,0.79-2.76,1.36-4.34,1.41c-2.28,0.07-4.21-0.57-5.29-2.87c-0.37,0.72-0.7,1.43-1.1,2.09
		c-1.26,2.11-2.63,4.15-4.71,5.54c-2.2,1.47-4.61,2.3-7.3,1.98c-2.4-0.29-3.71-1.56-4.21-3.93c-0.37-1.75-0.22-3.49,0.06-5.22
		c0.26-1.63,0.65-3.24,0.95-4.86c0.08-0.42,0.08-0.85,0.07-1.28c-0.01-0.46-0.3-0.74-0.75-0.66c-1.07,0.18-2.14,0.4-3.19,0.66
		c-0.13,0.03-0.25,0.32-0.28,0.5c-0.35,2.03-0.6,4.08-1.03,6.1c-0.68,3.18-1.39,6.38-2.83,9.31c-2.87,5.82-7.3,9.9-13.64,11.68
		c-2.29,0.64-4.61,0.73-6.85-0.26c-0.64-0.28-1.22-0.71-1.81-1.06c-0.54,1-1.06,2.05-1.67,3.04c-0.99,1.61-2.12,3.12-3.59,4.33
		c-1.78,1.46-3.81,2.22-6.12,2.17c-2.91-0.05-5.66-0.72-8.15-2.28c-0.76-0.48-1.43-1.06-1.9-1.85c-0.33-0.56-0.37-1.09,0.05-1.6
		c0.79-0.96,1.58-1.91,2.38-2.86c1.25-1.48,2.41-3.02,3.34-4.72c0.59-1.08,0.84-2.22,0.54-3.44c-0.28-1.17-0.99-1.5-2.07-0.96
		c-1.72,0.86-2.81,2.32-3.69,3.96c-1.6,2.99-2.21,6.23-2.29,9.59c-0.07,2.83,0.35,5.6,1.12,8.31c0.32,1.12,0.13,1.53-0.94,1.96
		c-1.33,0.53-2.7,0.95-4.13,0.94c-1.7,0-2.34-0.2-2.8-1.79c-0.4,0.63-0.76,1.25-1.16,1.83c-1.15,1.67-2.38,3.26-4.14,4.34
		c-1.69,1.04-3.49,1.73-5.52,1.61c-1.63-0.1-2.85-0.87-3.63-2.31c-0.06-0.11-0.14-0.21-0.16-0.25c-0.8,1.32-1.53,2.69-2.41,3.96
		c-1.13,1.64-2.41,3.15-4.19,4.16c-0.99,0.56-2.03,0.96-3.17,1.08c-2.78,0.3-5-1.23-5.74-3.93c-0.73-2.69-0.69-5.39-0.19-8.1
		c0.75-4.06,2.31-7.77,4.87-11.03c1.95-2.48,4.4-4.18,7.52-4.8c1.58-0.32,3.15-0.31,4.66,0.42c0.14,0.07,0.34,0.02,0.5-0.02
		c0.89-0.18,1.76-0.49,2.65-0.54c1.57-0.08,2.37,0.72,2.32,2.28c-0.06,1.71-0.26,3.42-0.38,5.14c-0.16,2.32-0.4,4.65,0.03,6.97
		c0.04,0.19,0.08,0.39,0.13,0.58c0.25,0.84,0.92,1.23,1.76,1c0.84-0.23,1.52-0.72,2.11-1.34c1.35-1.41,2.18-3.13,2.98-4.88
		c0.31-0.69,0.29-1.37,0.21-2.08c-0.46-4.24-0.46-8.48-0.12-12.72c0.23-2.83,0.54-5.66,0.99-8.46c0.69-4.28,1.82-8.45,3.86-12.32
		c1.23-2.34,2.74-4.44,5.11-5.79c2.12-1.21,4.62-1.04,6.56,0.43c0.91,0.7,1.38,1.62,1.44,2.76c0.08,1.79-0.31,3.51-0.76,5.22
		c-0.98,3.72-2.46,7.24-4.11,10.71c-0.03,0.07-0.06,0.15-0.14,0.35c0.18-0.14,0.26-0.2,0.34-0.27c1.39-1.28,2.84-2.48,4.6-3.24
		c2.16-0.93,4.67,0.25,5.33,2.49c0.38,1.29,0.04,2.49-0.55,3.63c-1.31,2.51-3.02,4.73-4.94,6.79c-0.57,0.62-1.15,1.23-1.76,1.81
		c-0.29,0.28-0.28,0.49-0.01,0.73c0.26,0.23,0.51,0.48,0.8,0.66c2.42,1.47,4.96,2.06,7.7,0.93c1.8-0.74,2.92-2.21,3.93-3.79
		c0.62-0.96,0.82-1.89,0.52-3.09c-0.84-3.32-0.22-6.56,1.03-9.69c1.38-3.47,3.51-6.39,6.59-8.56c1.83-1.29,3.83-1.97,6.11-1.6
		c2.73,0.45,4.41,2.34,4.46,5.11c0.07,4.55-2.18,7.8-5.85,10.21c-1.25,0.82-2.61,1.41-4.09,1.71c-0.13,0.03-0.25,0.07-0.37,0.1
		c0.07,1.46,1.52,2.97,3.13,3.31c1.39,0.29,2.69,0.01,3.95-0.56c2.66-1.21,4.5-3.29,6.1-5.65c1.26-1.86,1.88-3.98,2.55-6.09
		c1-3.13,1.57-6.34,1.73-9.62c0.02-0.4-0.08-0.56-0.48-0.68c-2.12-0.68-3.38-3.25-2.78-5.59c0.26-1.01,0.76-1.89,1.46-2.67
		c0.52-0.58,1.17-0.91,1.95-0.96c0.94-0.06,1.84,0.06,2.7,0.49c0.7,0.34,1.12,0.88,1.16,1.65c0.03,0.51-0.01,1.02-0.03,1.53
		c-0.01,0.38-0.08,0.76-0.04,1.13c0.08,0.7,0.47,1.01,1.16,0.89c0.61-0.11,1.22-0.3,1.8-0.52c1.42-0.55,2.62-1.45,3.84-2.35
		c0.36-0.26,0.75-0.49,1.15-0.68c1.68-0.77,3.34,0.26,3.48,2.1c0.1,1.38-0.31,2.68-0.54,4.01c-0.34,2.02-0.76,4.03-0.97,6.06
		c-0.11,1.06,0.04,2.18,0.24,3.24c0.24,1.34,1.23,1.79,2.5,1.29c0.96-0.38,1.73-1.03,2.35-1.84c1.5-1.93,2.5-4.1,3.16-6.45
		c0.19-0.69,0.18-1.35,0.13-2.05c-0.16-1.97-0.27-3.95-0.4-5.93c-0.17-2.69-0.33-5.37-0.5-8.06c0-0.08,0-0.17-0.01-0.25
		c-0.27-1.9,0.62-3.27,2.09-4.29c0.87-0.61,1.84-1.08,2.8-1.55c0.37-0.18,0.83-0.22,1.26-0.23c1.04-0.03,1.66,0.55,1.69,1.58
		c0.12,4.23,0.2,8.46,0.37,12.69c0.09,2.26,0.28,4.51,0.5,6.76c0.07,0.69,0.34,1.38,0.6,2.03c0.45,1.14,1.35,1.38,2.33,0.66
		c1.24-0.91,1.84-2.22,2.24-3.64c0.69-2.46,0.78-4.98,0.73-7.52c-0.09-4.57-0.72-9.08-1.56-13.56c-0.13-0.68-0.39-1.34-0.45-2.03
		c-0.22-2.65,1.04-4.64,2.98-6.26c0.5-0.42,1.08-0.77,1.66-1.06c1.08-0.54,2.13-0.14,2.65,0.93c2.11,4.32,3.81,8.81,5.21,13.41
		c1.31,4.32,2.32,8.71,3.01,13.16c0.52,3.35,0.89,6.71,0.97,10.1c0.1,4,0.08,8-0.37,11.98c-0.51,4.5-1.38,8.93-2.64,13.29
		c-1.66,5.75-3.91,11.25-6.98,16.4c-4.47,7.49-10.27,13.7-17.79,18.22c-2.71,1.63-5.57,2.95-8.61,3.86
		c-1.93,0.58-3.79,1.37-5.72,1.95c-4.13,1.24-8.37,1.92-12.65,2.31c-6.32,0.57-12.64,0.48-18.97,0.11
		c-8.14-0.47-16.23-1.37-24.33-2.27c-4.6-0.51-9.19-1.1-13.8-1.46c-7.53-0.6-14.99-0.13-22.3,1.92c-8.52,2.39-15.83,6.72-21.6,13.51
		c-2.19,2.57-3.7,4.95-5.64,8.92c0.03-0.22,0.03-0.32,0.06-0.41c1.88-5.57,4.35-10.85,8-15.5c4.73-6.04,10.86-10,18.15-12.26
		c4.97-1.54,10.08-2.24,15.26-2.57c7.2-0.46,14.4-0.21,21.6,0.06c8.19,0.31,16.38,0.65,24.58,0.42c7.51-0.21,14.97-0.89,22.32-2.54
		c6.88-1.55,13.43-3.96,19.42-7.74c7.45-4.7,13.1-11.03,17.03-18.9c2.51-5.03,4.19-10.33,5.3-15.82c0.5-2.46,0.97-4.93,1.26-7.42
		c0.2-1.78,0.13-3.6,0.08-5.4c-0.09-3.31-0.46-6.59-0.98-9.85C175.92,95.84,175.86,95.58,175.8,95.26"/>
	<path class="st0" d="M33.9,81.24c-0.13,0.12-0.26,0.22-0.38,0.35c-2.3,2.39-4.68,4.71-6.89,7.19c-2.86,3.22-5.41,6.68-7.11,10.68
		c-0.87,2.02-1.42,4.11-1.11,6.36c0.24,1.76,1.11,2.96,2.85,3.48c1.34,0.41,2.7,0.45,4.07,0.32c2.91-0.26,5.66-1.15,8.36-2.2
		c7.57-2.94,15.12-5.95,22.72-8.82c11.55-4.37,23.14-8.67,34.72-12.95c14.51-5.37,29.04-10.7,43.56-16.05c0.8-0.3,1.6-0.6,2.41-0.9
		c-0.45,0.06-0.87,0.21-1.29,0.35c-11.64,4.03-23.27,8.11-34.93,12.07c-15.65,5.32-31.32,10.58-47.02,15.77
		c-7.18,2.37-14.43,4.54-21.67,6.72c-2.18,0.66-4.42,1.11-6.65,1.57c-1.13,0.23-1.61-0.35-1.39-1.49c0.28-1.47,1.02-2.75,1.78-4.01
		c2.59-4.32,5.69-8.27,8.85-12.18c0.08-0.1,0.16-0.22,0.23-0.33c-0.04-0.03-0.07-0.06-0.11-0.09c-5.52,3.54-9.4,8.61-12.91,14.02
		c0.14-0.43,0.3-0.83,0.47-1.24C25.41,93.15,29.24,86.95,33.9,81.24 M44.4,77.18c0.49-0.74,0.94-1.5,1.46-2.2
		c2.08-2.79,4.67-5.08,7.4-7.21c3.74-2.91,7.71-5.45,11.86-7.74c0.08-0.04,0.16-0.1,0.27-0.18c-1.65-0.06-6.54,1.85-9.81,3.82
		c-3.02,1.82-5.74,4.03-8.25,6.5c3.09-5.56,7.55-9.7,13.2-12.55c5.01-2.54,10.35-3.67,16.08-3.45c-2.93,4.97-4.4,10.25-4.61,15.87
		c-0.06,1.44,0.03,2.89,0.13,4.35c8-6.87,16.76-12.51,25.78-17.79c-0.63-0.07-4.3,1.07-6.75,2.2c-2.17,1-4.34,2.03-6.42,3.2
		c-2.08,1.17-4.04,2.52-6.1,3.82c6.72-7.92,15.08-13.52,24.48-17.68c-0.02-0.06-0.04-0.12-0.06-0.18c-1.7,0.44-3.43,0.81-5.11,1.35
		c-5.33,1.73-10.14,4.47-14.73,7.63c-0.91,0.63-1.79,1.29-2.76,1.99c0.05-0.12,0.06-0.19,0.1-0.24c3.26-4.37,7.08-8.12,11.95-10.68
		c5.64-2.95,11.56-3.9,17.81-2.44c0.24,0.06,0.47,0.14,0.79,0.23c-2.49,3.07-4.09,6.51-4.97,10.29c-0.87,3.75-1.05,7.54-0.59,11.41
		c8.31-5.36,16.5-10.78,26.02-13.45c-0.66-0.19-5.84,0.52-8.71,1.23c-2.9,0.72-5.72,1.66-8.45,2.91c6.32-5.03,13.4-8.21,21.66-8.73
		c-3.69-0.76-12.56-0.29-22.26,4.5c0.14-0.13,0.29-0.26,0.43-0.39c4.01-3.55,8.69-5.76,13.93-6.74c7.08-1.33,13.98-0.67,20.63,2.19
		c2,0.86,3.88,1.93,5.44,3.48c2.26,2.24,2.77,5.13,1.43,8.01c-1.26,2.73-3.31,4.72-6.05,5.87c-4.65,1.94-9.33,3.81-14.03,5.6
		c-10.82,4.13-21.65,8.22-32.49,12.29c-11.27,4.23-22.56,8.42-33.85,12.6c-11.91,4.42-23.82,8.81-35.74,13.21
		c-2.56,0.94-5.07,2.04-7.78,2.45c-1.39,0.21-2.83,0.33-4.23,0.26c-3.16-0.17-5.7-2.86-5.95-6.01c-0.27-3.49,0.67-6.7,2.1-9.81
		c1.93-4.19,4.63-7.88,7.62-11.36c3.9-4.54,8.24-8.62,12.89-12.37c0.08-0.07,0.18-0.12,0.33-0.22c-0.91,5.18,0.26,10.01,1.95,14.74
		c1.48-3.2,3.62-5.91,5.97-8.46c4.72-5.12,10.13-9.42,15.87-13.32c0.11-0.07,0.21-0.15,0.3-0.3c-0.11,0.02-0.22,0.04-0.33,0.07
		c-3.64,1.13-6.89,3.01-10,5.17c-2.61,1.81-5.06,3.83-7.37,6.01c-0.12,0.12-0.26,0.23-0.38,0.35C44.47,77.24,44.43,77.21,44.4,77.18
		"/>
	<path class="st0" d="M119.94,21.55c3.56,5.2,9.32,5.6,14.12,2.06C130.32,18.83,124.91,17.64,119.94,21.55 M132.65,26.92
		c3.19,5.71,8.89,6.32,13.86,3.42C143.95,25.28,136.73,23.5,132.65,26.92 M125.73,32.99c-1.1-2.9-2.62-5.39-5.54-6.7
		c-2.33-1.04-4.71-0.84-7.1-0.16C114.86,32.57,120.03,34.45,125.73,32.99 M138.16,39.68c0.16-5.56-5.62-10.63-10.71-9.41
		C127.57,36.16,131.76,39.96,138.16,39.68 M153.32,42.35c-0.95-5.95-8.38-10.14-13.53-7.65c0.82,2.84,2.14,5.33,4.83,6.83
		C147.39,43.07,150.33,42.99,153.32,42.35 M95.71,24.7c3.71,7.01,10.29,7.4,15.76,4.39C108.32,23.66,102.48,20.63,95.71,24.7
		 M59.9,18.36c-3.54,0.83-6.64,2.21-8.54,5.43c-1.47,2.48-1.55,5.18-1.09,7.98c3.37-0.59,6.27-1.82,8.11-4.79
		C60.02,24.34,60.24,21.43,59.9,18.36 M74.48,14.88c-0.2-0.01-0.36-0.04-0.52-0.03c-0.92,0.06-1.85,0.05-2.76,0.19
		c-5.85,0.9-8.66,4.65-9.23,10.07c-0.04,0.36,0.1,0.48,0.43,0.47c0.43-0.01,0.86,0.02,1.29,0.02c4.55-0.09,7.85-2.09,9.67-6.34
		C73.94,17.87,74.32,16.43,74.48,14.88 M79.38,25.84c1.97,2.78,4.35,4.89,7.87,5.26c3.06,0.32,5.76-0.73,8.32-2.31
		C91.44,23.2,85.47,21.43,79.38,25.84 M89.2,12.93c-3.1-0.54-6.12-0.53-8.94,1.08c-2.92,1.67-4.27,4.41-5.04,7.53
		C81.93,23.43,87.39,20.06,89.2,12.93 M104.63,18.9c2.53,1.96,5.29,3.27,8.6,2.79c3.23-0.48,5.62-2.34,7.72-4.72
		C115.35,12.77,109.02,12.94,104.63,18.9 M64.51,30.2c5.21,5.82,11.69,4.76,16.36,0.43C76.27,25.93,69.91,24.8,64.51,30.2
		 M89.06,18.93c7.07,3.8,12.72,0.36,15.55-5.09C98.81,10.99,92.37,11.93,89.06,18.93 M52.23,36.09c2.18,2.17,4.6,3.78,7.76,3.85
		c3.43,0.08,6.17-1.51,8.67-3.68C64.12,31.74,57.71,30.41,52.23,36.09 M40.91,42.49c5.12,5.58,11.52,4.74,16.36,0.17
		C52.54,37.93,46.17,37.07,40.91,42.49 M39.53,40c3.07-1.2,5.65-2.92,6.95-6.02s0.92-6.22-0.09-9.4c-3.27,1.49-6,3.45-7.32,6.88
		C37.97,34.34,38.46,37.16,39.53,40 M47.46,22.28c0.41,1.1,0.79,2.13,1.17,3.16c2.07-6.05,6.84-8.31,12.75-9.17
		c0.18,0.97,0.33,1.83,0.5,2.73c0.39-0.55,0.73-1.08,1.13-1.56c2.04-2.47,4.75-3.72,7.84-4.23c1.71-0.28,3.42-0.31,5.14-0.05
		c0.35,0.05,0.44,0.19,0.42,0.51c-0.02,0.36,0,0.72,0,1.13c4.26-4.49,9.42-4.69,14.99-3.22c-0.09,0.55-0.17,1.01-0.26,1.58
		c2.36-1.91,4.98-2.77,7.91-2.65c2.89,0.12,5.53,1.01,8.04,2.51c-0.19,0.46-0.37,0.88-0.57,1.34c0.08-0.02,0.14-0.01,0.18-0.04
		c3.97-2.7,8.1-2.64,12.33-0.7c1.78,0.82,3.6,2.1,4.42,3.05c-0.28,0.4-0.57,0.81-0.88,1.25c0.78-0.17,1.51-0.37,2.25-0.47
		c3.18-0.43,5.95,0.6,8.35,2.62c1.08,0.91,1.95,2.05,2.93,3.07c0.12,0.13,0.34,0.29,0.49,0.26c3.86-0.56,6.99,0.86,9.64,3.56
		c1.14,1.16,2.08,2.47,2.79,3.99c-0.34,0.24-0.67,0.48-1.02,0.73c13.49,7.16,21.96,18.54,27.49,32.4c-1.09-2.03-2.11-4.1-3.29-6.07
		c-1.2-1.99-2.48-3.95-3.86-5.81c-1.4-1.88-2.9-3.69-4.49-5.41c-1.58-1.7-3.27-3.32-5.03-4.84c-1.75-1.53-3.64-2.9-5.47-4.34
		c-0.04,0.04-0.08,0.08-0.12,0.11c0.04,0.09,0.07,0.19,0.12,0.27c0.82,1.35,1.43,2.78,1.85,4.31c0.06,0.21,0.17,0.45,0.33,0.58
		c3.03,2.52,5.59,5.47,8.08,8.5c0.42,0.51,0.82,1.03,1.16,1.6c-0.55-0.6-1.1-1.21-1.65-1.81c-2.48-2.72-5.29-5.02-8.42-6.95
		c-0.36-0.22-0.69-0.27-1.11-0.17c-2.96,0.68-5.9,0.7-8.76-0.49c-1.77-0.73-3.2-1.89-4.35-3.42c-0.08-0.11-0.16-0.21-0.24-0.32
		c-0.01-0.01-0.03-0.02-0.11-0.06c0,0.43-0.01,0.82,0,1.21c0.01,0.24-0.03,0.4-0.33,0.44c-3.55,0.41-6.89-0.09-9.87-2.2
		c-1.45-1.03-2.51-2.39-3.2-4.02c-0.16-0.37-0.32-0.47-0.74-0.37c-2.81,0.68-5.6,0.71-8.32-0.41c-1.86-0.76-3.31-2.02-4.44-3.67
		c-0.07-0.11-0.16-0.2-0.15-0.19c-1.57,0.58-3.03,1.25-4.57,1.66c-3.62,0.96-7.08,0.57-10.2-1.67c-0.33-0.24-0.65-0.64-1-0.66
		c-0.32-0.01-0.66,0.39-0.99,0.6c-2.74,1.68-5.66,2.69-8.92,2.47c-1.66-0.11-3.2-0.61-4.67-1.43c-3.27,2.99-6.94,4.93-11.52,4.47
		c-0.07,0.16-0.1,0.35-0.22,0.47c-2.63,2.86-5.76,4.83-9.71,5.26c-0.68,0.07-1.38,0.01-2.17,0.01c0.27,0.34,0.49,0.61,0.81,1.01
		c-0.63,0.58-1.23,1.19-1.88,1.74c-2.15,1.83-4.56,3.15-7.39,3.6c-2.2,0.35-4.29-0.01-6.35-0.85c-1.54-0.63-3.12-1.23-4.84-1.12
		c-2.6,0.17-4.84,1.15-6.67,3.07c-4.34,4.52-8.25,9.37-11.62,14.66c-3.9,6.15-6.99,12.68-9.33,19.57c-0.02,0.06-0.02,0.12-0.01,0.18
		c5.64-14.1,13.55-26.57,25.78-35.93c-0.78,0.89-1.57,1.77-2.33,2.67c-5.94,6.99-11.17,14.49-15.64,22.51
		c-2.78,5-5.21,10.16-7.2,15.53c-1.51,4.09-2.74,8.27-3.62,12.54c-1.16,5.62-1.67,11.3-1.35,17.04c0.23,4.09,0.85,8.14,1.68,12.15
		c1.15,5.53,2.83,10.88,5.01,16.09c0.24,0.56,0.49,1.12,0.72,1.69c0.39,0.97-0.03,2-0.95,2.4c-0.93,0.4-2,0.01-2.39-0.97
		c-0.89-2.2-1.77-4.41-2.55-6.65c-1.28-3.66-2.31-7.41-3.02-11.22c-0.52-2.81-0.97-5.63-1.37-8.45c-0.82-5.77-0.8-11.56-0.42-17.36
		c0.24-3.71,0.72-7.39,1.34-11.06c0.97-5.74,2.36-11.37,4.13-16.91c2.15-6.72,4.92-13.17,8.32-19.34c3.61-6.56,7.56-12.91,12-18.95
		c0.09-0.12,0.18-0.23,0.33-0.31c-3.5,7.43-7,14.86-10.49,22.3c0.04,0.02,0.07,0.04,0.11,0.06c0.21-0.3,0.42-0.59,0.63-0.89
		c3.43-4.94,7.33-9.49,11.63-13.69c1.14-1.11,1.84-2.53,2.47-3.98c1.14-2.63,1.74-5.4,1.96-8.25c0.2-2.55,0.9-4.9,2.53-6.91
		C41.27,25.02,44.09,23.33,47.46,22.28"/>
	<path class="st0" d="M42.84,119.24c1.51,1.53,1.8,3.42,1.44,5.39c-0.27,1.47-0.64,2.96-1.23,4.31c-1.15,2.63-2.5,5.17-3.76,7.74
		c-0.08,0.15-0.15,0.31-0.26,0.53c0.12-0.05,0.15-0.06,0.17-0.08c0.13-0.15,0.27-0.29,0.4-0.44c2.19-2.55,4-5.34,5.07-8.55
		c0.66-1.98,1.02-4,0.43-6.08C44.74,120.82,44.04,119.82,42.84,119.24 M25.49,158.26c-0.98-11.8-0.65-23.48,3.23-34.83
		C23.27,134.63,22.91,146.31,25.49,158.26 M41.96,146.02c1.32,1.78,1.48,3.82,1.17,5.88c-0.95,6.17-4.04,11.07-9.04,14.76
		c-3.06,2.26-6.52,3.74-10.12,4.92c-0.15,0.05-0.3,0.11-0.45,0.16c0.16,0.07,0.29,0.07,0.42,0.05c2.78-0.49,5.45-1.34,7.98-2.59
		c5.05-2.48,8.67-6.3,10.73-11.55c0.99-2.52,1.55-5.12,1.16-7.85C43.61,148.35,43.1,147.03,41.96,146.02 M29.8,142.77
		c0.03,0.02,0.06,0.04,0.09,0.07c0.06-0.03,0.12-0.05,0.17-0.09c3.18-2.48,6.11-5.22,8.51-8.47c2.03-2.75,3.7-5.68,4.22-9.12
		c0.14-0.92,0.18-1.85-0.2-2.73c-0.32-0.73-0.89-0.93-1.56-0.5c-0.43,0.27-0.84,0.59-1.2,0.94c-1.25,1.23-2.18,2.69-3.06,4.19
		c-2.19,3.75-3.9,7.71-5.48,11.74C30.77,140.11,30.3,141.45,29.8,142.77 M36.49,142.9c0.58-0.07,1.01-0.15,1.45-0.18
		c1.7-0.16,3.38-0.06,4.93,0.74c2.28,1.16,3.36,3.14,3.73,5.57c0.51,3.24-0.3,6.26-1.71,9.15c-1.92,3.93-4.75,7.14-8.17,9.83
		c-3.55,2.79-7.45,4.89-11.89,5.9c-1.87,0.43-3.75,0.53-5.65,0.09c-3.23-0.75-5.35-3.38-5.41-6.7c-0.03-1.7,0.3-3.32,1.07-4.83
		c0.73-1.44,1.83-2.38,3.55-2.33c1.21,0.03,1.67,0.78,1.19,1.9c-0.59,1.38-1.02,2.78-0.74,4.32c0.35,1.94,1.61,3.15,3.57,3.33
		c1.73,0.17,3.34-0.32,4.9-1c4.7-2.05,8.53-5.13,11.15-9.6c1.52-2.6,2.42-5.39,2.15-8.45c-0.04-0.47-0.12-0.95-0.24-1.41
		c-0.54-2.18-2.11-3.2-4.35-2.96c-4.41,0.48-6.9,4.03-7.65,7.07c-0.15,0.62,0.02,1.35,0.12,2.01c0.29,1.86,0.61,3.71,0.94,5.56
		c0.12,0.68,0.01,0.97-0.6,1.29c-1.27,0.67-2.59,1.16-4.06,1.12c-2.01-0.05-3.28-1.25-3.54-3.24c-0.63-4.96-0.93-9.93-0.81-14.93
		c0.12-5.37,0.7-10.67,2.29-15.83c1.08-3.49,2.63-6.72,4.99-9.55c0.85-1.01,2.59-1.34,3.86-0.28c0.3,0.25,0.48,0.76,0.53,1.17
		c0.14,1.28-0.31,2.47-0.65,3.68c-0.54,1.92-1.05,3.85-1.57,5.77c-0.02,0.09-0.02,0.19,0.04,0.31c0.05-0.1,0.11-0.21,0.16-0.31
		c1.14-2.44,2.21-4.9,3.43-7.3c0.85-1.67,2.09-3.07,3.41-4.42c2.28-2.32,7.48-2.01,9.38,1.62c0.92,1.75,1.11,3.63,0.85,5.54
		c-0.71,5.36-3.26,9.86-6.81,13.82c-1.06,1.19-2.33,2.19-3.51,3.27C36.75,142.7,36.68,142.75,36.49,142.9"/>
	<path class="st0" d="M46,174.79c1.74-0.56,3.47-1.18,5.23-1.65c5.45-1.47,11.01-1.94,16.64-1.83c4.19,0.08,8.33,0.66,12.48,1.18
		c4.36,0.55,8.72,1.11,13.08,1.61c4.5,0.52,9,1.02,13.5,1.45c6.3,0.6,12.62,1.12,18.95,0.9c10.29-0.37,20.15-2.66,29.37-7.38
		c8.31-4.25,15.14-10.21,20.46-17.89c0.13-0.19,0.26-0.37,0.48-0.5c-0.09,0.15-0.17,0.3-0.25,0.44c-2.81,4.6-6.29,8.65-10.31,12.24
		c-5.53,4.94-11.79,8.69-18.71,11.35c-4.9,1.88-9.95,3.12-15.14,3.86c-6.16,0.87-12.35,0.91-18.55,0.52
		c-3.63-0.23-7.26-0.39-10.89-0.64c-5.03-0.34-10.02-0.98-15-1.81c-6.26-1.05-12.52-2.03-18.81-2.89
		c-4.65-0.64-9.34-0.86-14.04-0.47c-2.71,0.22-5.37,0.68-7.96,1.54c-0.17,0.05-0.34,0.1-0.51,0.15
		C46.02,174.91,46.01,174.85,46,174.79"/>
	<path class="st0" d="M146.15,69.77c-1.59,0.65-3.18,1.3-4.76,1.95c-13.21,5.4-26.41,10.81-39.63,16.19
		C87.41,93.76,73.06,99.6,58.7,105.4c-8.47,3.42-16.97,6.76-25.46,10.13c-2.4,0.95-4.85,1.77-7.44,2c-2.75,0.24-5.38-0.11-7.73-1.71
		c-1.08-0.74-1.95-1.68-2.62-2.8c-0.05-0.08-0.08-0.17-0.17-0.36c1.94,1.71,4.19,2.2,6.55,2.33c3.23,0.18,6.36-0.38,9.4-1.45
		c6.57-2.31,13.17-4.56,19.68-7.04c11.43-4.36,22.82-8.85,34.21-13.33c6.79-2.67,13.53-5.49,20.35-8.1
		c12.61-4.84,25.27-9.57,37.9-14.35c0.91-0.34,1.82-0.69,2.72-1.03C146.11,69.71,146.13,69.74,146.15,69.77"/>
	<path class="st0" d="M78.19,147.05c-0.41,1.29-1.1,2.4-2.01,3.36c-1.74,1.83-3.92,2.69-6.39,2.88c-0.4,0.03-0.65,0.18-0.9,0.49
		c-1.82,2.3-3.89,4.32-6.62,5.53c-2.99,1.32-6.1,0.63-8.2-1.78c0.75,0.17,1.48,0.39,2.22,0.5c3.34,0.51,6.09-0.68,8.42-3.01
		c1.18-1.18,2.14-2.52,2.85-4.02c0.15-0.32,0.31-0.41,0.68-0.35c1.49,0.24,2.99,0.28,4.49,0.02c2.06-0.36,3.6-1.57,4.93-3.09
		c0.15-0.17,0.29-0.36,0.44-0.54C78.1,147.04,78.12,147.05,78.19,147.05"/>
	<path class="st0" d="M47.95,117.94c2.48,0.42,4.42,2.5,4.7,4.91c0.24,2.05-0.23,3.97-0.93,5.86c-1.71,4.62-4.55,8.39-8.54,11.29
		c-0.06,0.05-0.13,0.09-0.25,0.1c0.34-0.47,0.69-0.94,1.02-1.42c2.34-3.38,4.28-6.98,5.56-10.9c0.96-2.95,0.87-5.86-0.73-8.61
		C48.55,118.75,48.25,118.38,47.95,117.94"/>
	<path class="st0" d="M114.23,129.64c10.25,0.72,17.19-3.92,21.38-13.09c-0.06,0.29-0.11,0.58-0.17,0.86
		c-0.07,0.32-0.15,0.64-0.23,0.96c-0.08,0.3-0.17,0.61-0.27,0.9c-2.32,6.61-7.05,10.53-13.73,12.2c-1.88,0.47-3.79,0.34-5.54-0.64
		c-0.52-0.29-0.98-0.69-1.46-1.04C114.21,129.74,114.22,129.69,114.23,129.64"/>
	<path class="st0" d="M17.82,176.11c5.62,1.9,10.66,0.69,15.41-2.53c-0.08,0.09-0.14,0.19-0.23,0.27c-1.79,1.77-3.46,3.63-4.65,5.88
		c-0.07,0.12-0.23,0.26-0.36,0.28c-2.58,0.29-5.12,0.2-7.49-1.03C19.25,178.32,18.28,177.27,17.82,176.11"/>
	<path class="st0" d="M140.36,114.8c0.65,0.45,1.29,0.97,2.01,1.37c2.21,1.23,4.53,1.35,6.89,0.52c3.11-1.09,5.67-2.93,7.6-5.62
		c0.04-0.05,0.09-0.09,0.23-0.24c-0.47,1.32-1.05,2.44-1.78,3.48c-2.1,2.97-4.91,4.81-8.54,5.28
		C143.08,120.05,140.88,117.67,140.36,114.8"/>
	<path class="st0" d="M111.22,131.33c-0.95,3.65-2.45,6.93-6.36,8.26c-3.3,1.13-6.2,0.14-8.78-2.03c-0.03-0.03-0.04-0.08-0.08-0.17
		c2.97,1.03,5.94,1.47,8.86,0.09C107.66,136.16,109.82,134.12,111.22,131.33"/>
	<path class="st0" d="M160.05,110.37c0.91,0.3,1.8,0.65,2.72,0.89c1.62,0.42,3.13,0.09,4.54-0.81c2.46-1.57,4.61-3.52,6.75-5.5
		c0.15-0.13,0.29-0.27,0.53-0.49c-0.06,0.17-0.07,0.24-0.11,0.29c-1.42,2.13-2.93,4.2-4.78,5.99c-1.11,1.08-2.31,2.02-3.89,2.33
		c-2.31,0.45-4.57-0.57-5.73-2.61C160.05,110.42,160.05,110.37,160.05,110.37"/>
	<path class="st0" d="M90.99,141.71c-1.03,2.49-2.38,4.65-5.34,5.15c-0.69,0.12-1.38,0.1-2.03-0.24c-0.67-0.36-1.09-1.12-1.03-1.92
		c1.56,0.46,3.1,0.36,4.59-0.27C88.66,143.82,89.87,142.83,90.99,141.71"/>
	<path class="st0" d="M43.87,164.83c2.12-2.6,3.68-5.52,4.41-8.98c0.41,1.08,0.43,2.08,0.31,3.08c-0.19,1.55-0.63,3.04-1.29,4.45
		c-0.08,0.16-0.22,0.35-0.37,0.41C45.91,164.15,44.89,164.49,43.87,164.83"/>
	<path class="st0" d="M45.9,25.97c1.92,4.84-0.33,11.26-5.82,12.92C44.75,35.87,46.35,31.45,45.9,25.97"/>
	<path class="st0" d="M42.35,42.69c4.37,3.08,8.75,2.36,13.25,0.25c-1.43,1.49-4.66,3-7.69,2.74
		C45.78,45.49,43.17,44.16,42.35,42.69"/>
	<path class="st0" d="M67.32,36.33c-3.77,4.54-10.16,3.96-13.96-0.01c2.18,1.23,4.45,2.19,6.99,2.29
		C62.95,38.72,65.21,37.76,67.32,36.33"/>
	<path class="st0" d="M90.07,18.77c5.34,1.24,9.7-0.55,13.45-4.28C101.22,18.83,95.19,21.51,90.07,18.77"/>
	<path class="st0" d="M79.65,30.84c-4.15,3.95-10.48,3.59-13.99-0.46C70.23,33.41,74.89,33.43,79.65,30.84"/>
	<path class="st0" d="M105.67,18.94c5.07,2.53,9.71,1.62,14.09-1.64C116.76,21.39,110.15,22.94,105.67,18.94"/>
	<path class="st0" d="M76.46,21.11c5.7,0.18,9.29-2.99,11.98-7.57C87.07,18.89,81.78,22.77,76.46,21.11"/>
	<path class="st0" d="M94.37,28.63c-4.32,3.39-10.66,2.42-13.91-2.59c1.93,1.65,4,3,6.54,3.51C89.57,30.07,91.98,29.53,94.37,28.63"
		/>
	<path class="st0" d="M62.95,25.03c5.73-0.65,8.8-4.35,10.78-9.38c0.07,1.72-1.21,4.86-3.1,6.76
		C68.58,24.47,65.53,25.55,62.95,25.03"/>
	<path class="st0" d="M50.96,31.06c5.42-1.94,7.86-6.03,8.36-11.62c0.52,1.45,0.2,4.85-1.24,7.17
		C56.45,29.26,54.05,30.69,50.96,31.06"/>
	<path class="st0" d="M110.47,29.02c-4.69,2.86-11.17,1.48-13.67-3.88C100.48,29.52,105.12,30.52,110.47,29.02"/>
	<path class="st0" d="M140.55,35.25c2.58,4.56,6.49,6.7,11.79,6.52c-1.27,0.66-4.48,0.78-6.86-0.41
		C142.92,40.07,141.32,38.01,140.55,35.25"/>
	<path class="st0" d="M128.06,30.94c1.59,4.42,4.72,7.1,9.26,8.19C133.17,39.56,128.32,36.18,128.06,30.94"/>
	<path class="st0" d="M113.9,26.73c1.29,1.82,2.79,3.4,4.77,4.47c1.96,1.06,4.09,1.42,6.41,1.42
		C120.96,34.14,115.37,31.75,113.9,26.73"/>
	<path class="st0" d="M133.36,27.18c3.43,3.44,7.49,4.36,12.12,3.04C141.79,32.74,135.88,31.9,133.36,27.18"/>
	<path class="st0" d="M133.17,23.65c-4.22,3.18-9.77,2.11-12.43-1.83C124.52,24.93,128.68,25.38,133.17,23.65"/>
</g>
</svg>
