<?xml version="1.0" encoding="utf-8"?>
<svg version="1.1" xmlns:xlink="http://www.w3.org/1999/xlink" width="34px" height="30px" xmlns="http://www.w3.org/2000/svg">
  <g transform="matrix(1 0 0 1 -305 -706 )">
    <path d="M 25.765625 27.12890625  C 26.024439102564102 26.881510416666668  26.153846153846157 26.588541666666668  26.153846153846157 26.25  C 26.153846153846157 25.911458333333332  26.024439102564102 25.618489583333332  25.765625 25.37109375  C 25.5068108974359 25.123697916666668  25.200320512820518 25  24.846153846153843 25  C 24.49198717948718 25  24.185496794871796 25.123697916666668  23.926682692307693 25.37109375  C 23.667868589743595 25.618489583333332  23.538461538461537 25.911458333333332  23.538461538461537 26.25  C 23.538461538461537 26.588541666666668  23.667868589743595 26.881510416666668  23.926682692307693 27.12890625  C 24.185496794871796 27.376302083333332  24.49198717948718 27.5  24.846153846153843 27.5  C 25.200320512820518 27.5  25.5068108974359 27.376302083333332  25.765625 27.12890625  Z M 30.99639423076923 27.12890625  C 31.255208333333332 26.881510416666668  31.384615384615387 26.588541666666668  31.384615384615387 26.25  C 31.384615384615387 25.911458333333332  31.255208333333332 25.618489583333332  30.99639423076923 25.37109375  C 30.73758012820513 25.123697916666668  30.431089743589745 25  30.076923076923077 25  C 29.72275641025641 25  29.41626602564103 25.123697916666668  29.157451923076923 25.37109375  C 28.898637820512825 25.618489583333332  28.76923076923077 25.911458333333332  28.76923076923077 26.25  C 28.76923076923077 26.588541666666668  28.898637820512825 26.881510416666668  29.157451923076923 27.12890625  C 29.41626602564103 27.376302083333332  29.72275641025641 27.5  30.076923076923077 27.5  C 30.431089743589745 27.5  30.73758012820513 27.376302083333332  30.99639423076923 27.12890625  Z M 33.42788461538461 20.546874999999996  C 33.809294871794876 20.91145833333333  34 21.354166666666668  34 21.875000000000004  L 34 28.125  C 34 28.645833333333336  33.809294871794876 29.088541666666664  33.42788461538461 29.453125  C 33.046474358974365 29.817708333333336  32.583333333333336 30  32.03846153846154 30  L 1.9615384615384617 30  C 1.4166666666666667 30  0.9535256410256412 29.817708333333336  0.5721153846153846 29.453125  C 0.19070512820512817 29.088541666666664  0 28.645833333333336  0 28.125  L 0 21.875000000000004  C 0 21.354166666666668  0.19070512820512817 20.91145833333333  0.5721153846153846 20.546874999999996  C 0.9535256410256412 20.182291666666668  1.4166666666666667 20.000000000000004  1.9615384615384617 20.000000000000004  L 11.462740384615385 20.000000000000004  L 14.221153846153847 22.65625  C 15.01121794871795 23.385416666666664  15.9375 23.75  17 23.75  C 18.0625 23.75  18.98878205128205 23.385416666666664  19.778846153846157 22.65625  L 22.557692307692307 20.000000000000004  L 32.03846153846154 20.000000000000004  C 32.583333333333336 20.000000000000004  33.046474358974365 20.182291666666668  33.42788461538461 20.546874999999996  Z M 26.153846153846157 10.000000000000002  C 26.725961538461537 10.000000000000002  27.12780448717949 10.25390625  27.359375 10.761718750000002  C 27.590945512820518 11.295572916666666  27.495592948717952 11.751302083333332  27.073317307692307 12.12890625  L 17.919471153846157 20.878906250000004  C 17.674278846153843 21.126302083333332  17.367788461538463 21.249999999999996  17 21.249999999999996  C 16.632211538461537 21.249999999999996  16.325721153846153 21.126302083333332  16.080528846153847 20.878906250000004  L 6.9266826923076925 12.12890625  C 6.504407051282052 11.751302083333332  6.409054487179488 11.295572916666666  6.640625 10.761718750000002  C 6.872195512820514 10.25390625  7.274038461538461 10.000000000000002  7.846153846153847 10.000000000000002  L 13.076923076923078 10.000000000000002  L 13.076923076923078 1.249999999999999  C 13.076923076923078 0.9114583333333293  13.20633012820513 0.6184895833333293  13.465144230769232 0.3710937499999989  C 13.723958333333334 0.12369791666666852  14.030448717948719 0  14.384615384615385 0  L 19.615384615384613 0  C 19.969551282051285 0  20.276041666666668 0.12369791666666852  20.53485576923077 0.3710937499999989  C 20.793669871794872 0.6184895833333293  20.923076923076923 0.9114583333333293  20.923076923076923 1.249999999999999  L 20.923076923076923 10.000000000000002  L 26.153846153846157 10.000000000000002  Z " fill-rule="nonzero" fill="#942f36" stroke="none" transform="matrix(1 0 0 1 305 706 )" />
  </g>
</svg>