<?xml version="1.0" encoding="utf-8"?>
<!-- Generator: Adobe Illustrator 26.0.3, SVG Export Plug-In . SVG Version: 6.00 Build 0)  -->
<svg version="1.1" id="Capa_1" xmlns="http://www.w3.org/2000/svg" xmlns:xlink="http://www.w3.org/1999/xlink" x="0px" y="0px"
	 viewBox="0 0 100 100" style="enable-background:new 0 0 100 100;" xml:space="preserve">
<style type="text/css">
	.st0{fill:#226B94;}
</style>
<g>
	<path class="st0" d="M53.21,1.64c1.36,0.19,2.73,0.34,4.09,0.56c11.49,1.83,21.09,7.14,28.83,15.79
		c5.89,6.58,9.67,14.25,11.36,22.93c1.03,5.29,1.1,10.61,0.34,15.95c-1.24,8.74-4.57,16.62-9.9,23.62
		c-6.78,8.91-15.54,14.97-26.55,17.87c-0.02-0.4-0.05-0.72-0.05-1.05c0-5.89-0.07-11.77,0.02-17.66c0.05-3.5-0.66-6.67-3.03-9.35
		c-0.18-0.2-0.3-0.46-0.47-0.71c1.78-0.44,3.53-0.79,5.22-1.31c4.71-1.44,8.8-3.86,11.73-7.94c2.92-4.08,4.22-8.64,3.96-13.66
		c-0.22-4.22-1.88-7.91-4.22-11.32c-0.67-0.98-0.78-1.84-0.48-2.97c0.99-3.71,0.42-7.33-0.84-10.79c-4.43-0.01-7.9,2.28-11.44,4.36
		c-0.76,0.45-1.44,0.55-2.3,0.33c-6.33-1.66-12.67-1.67-19,0.01c-0.82,0.22-1.47,0.09-2.22-0.31c-2.49-1.33-4.98-2.66-7.56-3.78
		c-1.15-0.5-2.51-0.5-3.84-0.73c-1.07,2.74-1.65,5.54-1.34,8.47c0.12,1.12,0.45,2.21,0.6,3.33c0.06,0.45,0.01,1.06-0.25,1.39
		c-2.69,3.46-4.07,7.39-4.42,11.72c-0.51,6.27,1.28,11.75,5.7,16.26c3.26,3.34,7.38,5.15,11.85,6.23c1,0.24,2.02,0.42,3.17,0.66
		c-0.18,0.29-0.32,0.54-0.49,0.77c-1.26,1.7-2.43,3.44-2.7,5.62c-0.03,0.22-0.36,0.49-0.61,0.58c-3.09,1.15-5.74,0.34-7.56-2.4
		c-1.55-2.33-3.22-4.5-5.77-5.83c-1.51-0.79-3.25-1.19-4.93-1.01c0.16,1.82,0.31,3.65,0.47,5.53c2.09,0.06,3.29,1.42,4.46,2.85
		c1.27,1.55,2.37,3.3,3.87,4.58c2.78,2.37,6.14,2.84,9.73,2.11c0,5.32,0,10.6,0,16c-0.83-0.22-1.63-0.41-2.42-0.66
		c-9.18-2.91-16.77-8.18-22.88-15.6C7.5,75.01,3.87,66.94,2.3,57.94c-0.3-1.69-0.43-3.41-0.64-5.12c0-2.01,0-4.03,0-6.04
		c0.06-0.27,0.14-0.54,0.18-0.82c0.42-2.57,0.66-5.18,1.29-7.69c2.56-10.2,7.97-18.67,16.02-25.4c6.87-5.75,14.76-9.34,23.65-10.68
		c1.33-0.2,2.66-0.36,4-0.55C48.93,1.64,51.07,1.64,53.21,1.64z"/>
</g>
</svg>
