<?xml version="1.0" encoding="utf-8"?>
<!-- Generator: Adobe Illustrator 26.0.3, SVG Export Plug-In . SVG Version: 6.00 Build 0)  -->
<svg version="1.1" id="Capa_1" xmlns="http://www.w3.org/2000/svg" xmlns:xlink="http://www.w3.org/1999/xlink" x="0px" y="0px"
	 viewBox="0 0 100 100" style="enable-background:new 0 0 100 100;" xml:space="preserve">
<style type="text/css">
	.st0{fill:#226B94;}
</style>
<g>
	<path class="st0" d="M98.15,48.94c-0.11,0.22-0.23,0.43-0.34,0.65c-0.78,1.61-2.49,2.48-4.2,2.13c-1.74-0.37-2.98-1.89-2.98-3.71
		c-0.01-9.97,0-19.94-0.01-29.9c0-3.77-2.18-6.72-5.62-7.61c-0.75-0.19-1.55-0.28-2.32-0.28c-21.79-0.01-43.57-0.02-65.36-0.01
		c-4.73,0-7.95,3.24-7.95,7.98c-0.01,16.05-0.01,32.1,0,48.15c0,4.79,3.23,8,8.03,8.01c5.89,0.01,11.79,0.03,17.68-0.02
		c1.62-0.01,2.81,0.58,3.79,1.83c3.32,4.25,6.66,8.47,10,12.7c0.94,1.2,1.25,1.2,2.18,0.01c3.36-4.29,6.72-8.58,10.08-12.88
		c0.87-1.11,1.96-1.66,3.4-1.66c6.08,0.03,12.16,0.02,18.24,0.01c3.71-0.01,6.62-2.16,7.55-5.58c0.17-0.63,0.26-1.29,0.3-1.94
		c0.1-1.92,1.33-3.43,3.09-3.73c1.81-0.31,3.46,0.63,4.23,2.4c0.06,0.14,0.14,0.26,0.22,0.39c0,0.94,0,1.88,0,2.82
		c-0.06,0.14-0.15,0.28-0.17,0.42c-1.2,7.43-7.41,12.74-14.92,12.74c-5.33,0-10.66,0.01-15.98-0.01c-0.67,0-1.08,0.2-1.49,0.72
		c-2.92,3.76-5.84,7.52-8.8,11.25c-3.75,4.72-9.97,4.67-13.67-0.05c-2.94-3.74-5.91-7.47-8.83-11.23c-0.39-0.5-0.78-0.68-1.4-0.68
		c-5.33,0.02-10.66,0.01-15.98,0c-8.34-0.01-15.03-6.7-15.03-15.04c0-16.36,0-32.72,0-49.08c0-8.36,6.68-15.06,15.02-15.06
		c22.1,0,44.19,0,66.29,0c6.76,0,12.62,4.47,14.45,11c0.2,0.72,0.37,1.44,0.55,2.16C98.15,26.87,98.15,37.91,98.15,48.94z"/>
	<path class="st0" d="M46.24,49.84c0-3.32,0-6.65,0-9.97c0-2.28,1.58-3.91,3.78-3.9c2.14,0.01,3.73,1.63,3.73,3.86
		c0.01,6.71,0.01,13.42,0,20.13c0,2.22-1.59,3.85-3.74,3.85c-2.19,0.01-3.78-1.62-3.78-3.9C46.24,56.54,46.24,53.19,46.24,49.84z"/>
	<path class="st0" d="M49.95,30.51c-2.09-0.01-3.72-1.67-3.71-3.79c0.01-2.14,1.68-3.76,3.85-3.73c2.08,0.03,3.69,1.7,3.67,3.83
		C53.74,28.9,52.07,30.52,49.95,30.51z"/>
</g>
</svg>
