<?xml version="1.0" encoding="utf-8"?>
<!-- Generator: Adobe Illustrator 26.0.3, SVG Export Plug-In . SVG Version: 6.00 Build 0)  -->
<svg version="1.1" id="Capa_1" xmlns="http://www.w3.org/2000/svg" xmlns:xlink="http://www.w3.org/1999/xlink" x="0px" y="0px"
	 viewBox="0 0 100 100" style="enable-background:new 0 0 100 100;" xml:space="preserve">
<style type="text/css">
	.st0{fill:#226B94;}
</style>
<g>
	<path class="st0" d="M13.93,1.65c24.05,0,48.09,0,72.14,0c0.1,0.06,0.2,0.15,0.31,0.17c7.05,1.2,11.96,6.97,11.96,14.09
		c0.01,22.75,0.01,45.49,0,68.24c0,7.91-6.28,14.18-14.19,14.19c-22.78,0.01-45.55,0.04-68.33-0.02c-5.88-0.01-10.16-2.87-12.79-8.1
		c-0.65-1.29-0.93-2.76-1.38-4.15c0-24.05,0-48.09,0-72.14c0.06-0.1,0.15-0.2,0.17-0.31c1.18-6.11,4.79-9.96,10.78-11.6
		C13.05,1.9,13.49,1.77,13.93,1.65z M41.57,38.71c0,13.23,0,26.4,0,39.57c3.77,0,7.47,0,11.26,0c0-0.38,0-0.72,0-1.06
		c0-7.11,0.01-14.23-0.01-21.34c0-1.73,0.55-3.22,1.84-4.38c1.78-1.59,3.86-1.99,6.05-1.04c2.21,0.96,3.43,2.74,3.44,5.18
		c0.03,7.18,0.01,14.35,0.01,21.53c0,0.37,0,0.73,0,1.08c3.85,0,7.57,0,11.3,0c0.01-0.2,0.03-0.32,0.03-0.44
		c0-7.99,0.07-15.99-0.05-23.98c-0.03-1.91-0.44-3.89-1.09-5.69c-2.34-6.41-9.3-11.08-16.79-8.9c-1.56,0.45-3.09,1.01-4.73,1.55
		c0-0.73,0-1.38,0-2.07C49.04,38.71,45.34,38.71,41.57,38.71z M35.77,78.28c0-13.24,0-26.4,0-39.54c-3.79,0-7.51,0-11.22,0
		c0,13.22,0,26.36,0,39.54C28.3,78.28,32,78.28,35.77,78.28z M24.57,21.71c0,3.8,0,7.52,0,11.22c3.79,0,7.51,0,11.21,0
		c0-3.78,0-7.48,0-11.22C32.04,21.71,28.34,21.71,24.57,21.71z"/>
</g>
</svg>
