<?xml version="1.0" encoding="utf-8"?>
<!-- Generator: Adobe Illustrator 26.0.3, SVG Export Plug-In . SVG Version: 6.00 Build 0)  -->
<svg version="1.1" id="Capa_1" xmlns="http://www.w3.org/2000/svg" xmlns:xlink="http://www.w3.org/1999/xlink" x="0px" y="0px"
	 viewBox="0 0 694 195" style="enable-background:new 0 0 694 195;" xml:space="preserve">
<style type="text/css">
	.st0{clip-path:url(#SVGID_00000080916976439992375340000011789974832626172850_);fill:#942E36;}
</style>
<g>
	<g>
		<g>
			<defs>
				<rect id="SVGID_1_" y="43.9" width="107.2" height="107.2"/>
			</defs>
			<clipPath id="SVGID_00000004510987982484773750000009170659117116015244_">
				<use xlink:href="#SVGID_1_"  style="overflow:visible;"/>
			</clipPath>
			<path style="clip-path:url(#SVGID_00000004510987982484773750000009170659117116015244_);fill:#942E36;" d="M3.1,115.5
				c-0.3-0.8-0.5-1.6-0.8-2.4l66.9-66.9c0.8,0.2,1.6,0.5,2.4,0.8L3.1,115.5z M61.4,44.5c-0.9-0.2-1.9-0.2-2.8-0.3L0.2,102.5
				c0.1,0.9,0.2,1.9,0.3,2.8L61.4,44.5z M84.2,53.5c-0.6-0.4-1.3-0.9-1.9-1.3l-74,74c0.4,0.6,0.8,1.3,1.3,1.9L84.2,53.5z M76.1,48.8
				c-0.7-0.3-1.5-0.7-2.2-1L4,117.8c0.3,0.7,0.6,1.5,1,2.2L76.1,48.8z M80.3,51c-0.7-0.4-1.4-0.8-2.1-1.1L6,122.2
				c0.3,0.7,0.7,1.4,1.1,2.1L80.3,51z M32.1,48.4c-2.3,1-4.5,2.2-6.7,3.5L8,69.3c-1.4,2.2-2.5,4.4-3.5,6.7L32.1,48.4z M52.4,43.9
				L0,96.3c0,1.1,0,2.1,0,3.2l55.5-55.6C54.5,43.9,53.5,43.9,52.4,43.9 M107.2,97.2l-53.9,53.9c1.1,0,2.2,0,3.3-0.1l50.5-50.5
				C107.1,99.4,107.2,98.3,107.2,97.2 M87.8,56.3c-0.6-0.5-1.2-1-1.8-1.4l-75.1,75.1c0.4,0.6,0.9,1.2,1.4,1.8L87.8,56.3z M49.1,44.1
				c-1.2,0.1-2.4,0.2-3.6,0.4L0.6,89.4c-0.2,1.2-0.3,2.4-0.4,3.6L49.1,44.1z M41.6,45.3c-1.5,0.3-2.9,0.7-4.4,1.2L2.5,81.1
				c-0.4,1.5-0.9,2.9-1.2,4.4L41.6,45.3z M66.7,45.5c-0.9-0.2-1.7-0.4-2.6-0.6L1,108c0.2,0.9,0.4,1.7,0.6,2.6L66.7,45.5z
				 M106.2,107.7c0.2-1.3,0.4-2.5,0.6-3.8l-46.7,46.7c1.3-0.1,2.5-0.3,3.8-0.6L106.2,107.7z M107.1,94.2c-0.1-1-0.1-1.9-0.2-2.9
				l-59.5,59.5c1,0.1,1.9,0.2,2.9,0.2L107.1,94.2z M106.4,88.4c-0.1-0.9-0.3-1.8-0.5-2.6l-64,64c0.9,0.2,1.8,0.4,2.6,0.5L106.4,88.4
				z M91.1,59.2c-0.5-0.5-1.1-1-1.6-1.6l-75.7,75.7c0.5,0.5,1,1.1,1.6,1.6L91.1,59.2z M94.2,132.4c2.7-3.1,4.9-6.4,6.8-10
				l-22.5,22.5c3.5-1.9,6.8-4.1,10-6.8L94.2,132.4z M105.2,83.3c-0.2-0.8-0.5-1.6-0.7-2.4l-67.6,67.6c0.8,0.2,1.6,0.5,2.4,0.7
				L105.2,83.3z M103.7,116.7c0.6-1.6,1.1-3.1,1.6-4.7L68,149.1c1.6-0.4,3.2-1,4.7-1.6L103.7,116.7z M97,66.1
				c-0.4-0.6-0.9-1.2-1.4-1.8l-75.3,75.2c0.6,0.5,1.2,0.9,1.8,1.4L97,66.1z M103.7,78.5c-0.3-0.8-0.6-1.5-0.9-2.2l-70.5,70.5
				c0.7,0.3,1.5,0.6,2.2,0.9L103.7,78.5z M94.2,62.5c-0.5-0.6-1-1.1-1.5-1.7l-75.7,75.7c0.5,0.5,1.1,1,1.7,1.5L94.2,62.5z
				 M99.5,69.9c-0.4-0.6-0.8-1.3-1.2-1.9L24,142.2c0.6,0.4,1.3,0.8,1.9,1.2L99.5,69.9z M101.8,74c-0.3-0.7-0.7-1.4-1.1-2.1L28,144.6
				c0.7,0.4,1.4,0.7,2.1,1.1L101.8,74z"/>
		</g>
	</g>
	<g>
		<path d="M151.2,83.1h6.1c4.6,0,7.2,2.8,7.2,7.4V104c0,5.3-2.8,7.9-7.6,7.9h-5.8L151.2,83.1L151.2,83.1z M155.3,108h1.9
			c2.3,0,3.2-1.1,3.2-3.6V90.5c0-2.3-0.8-3.6-3.2-3.6h-1.9V108z"/>
		<path d="M168.4,83.1h12.3V87h-8.2v8.5h7.1v3.9h-7.1v8.5h8.2v4.1h-12.3V83.1z"/>
		<path d="M196.7,91.4h-4.1v-0.9c0-1.9-0.8-3.5-2.9-3.5c-2.3,0-2.8,1.8-2.8,3.7c0,2.2,0.2,3,2.4,3.8l3.1,1.3
			c3.6,1.4,4.3,3.7,4.3,7.9c0,4.9-1.8,8.5-7.1,8.5c-4,0-7-3-7-6.8v-1.5h4.1v1.3c0,1.5,0.8,3,2.9,3c2.8,0,3-1.7,3-4.3
			c0-3.1-0.4-3.6-2.4-4.4l-2.9-1.2c-3.6-1.5-4.5-3.8-4.5-7.4c0-4.4,2.4-7.9,7.1-7.9c4.1,0,6.9,3.3,6.9,6.5L196.7,91.4L196.7,91.4z"
			/>
		<path d="M204.4,83.1h3.4l6.4,28.8h-4.1l-1.2-6.2h-5.6l-1.2,6.2H198L204.4,83.1z M206.1,91.4L206.1,91.4l-2.1,10.4h4.1L206.1,91.4z
			"/>
		<path d="M216.3,83.1h6.6c4.9,0,7.3,2.9,7.3,8.5c0,3.3-0.9,5.7-3.6,7.2l4.5,13.2h-4.4l-3.8-12.3h-2.5v12.3h-4.1L216.3,83.1
			L216.3,83.1z M220.4,96h2.4c2.9,0,3.3-1.6,3.3-4.5c0-2.9-0.5-4.5-3.5-4.5h-2.1L220.4,96L220.4,96z"/>
		<path d="M233.6,83.1h6.6c4.9,0,7.3,2.9,7.3,8.5c0,3.3-0.9,5.7-3.6,7.2l4.5,13.2H244l-3.8-12.3h-2.5v12.3h-4.1L233.6,83.1
			L233.6,83.1z M237.7,96h2.4c2.9,0,3.3-1.6,3.3-4.5c0-2.9-0.5-4.5-3.5-4.5h-2.1L237.7,96L237.7,96z"/>
		<path d="M250.6,89.9c0-4.7,3.6-7,6.9-7c3.4,0,6.9,2.3,6.9,7v15.2c0,4.7-3.6,7-6.9,7c-3.4,0-6.9-2.3-6.9-7V89.9z M254.7,105.1
			c0,2,1.3,2.9,2.8,2.9c1.5,0,2.8-0.9,2.8-2.9V89.9c0-2-1.3-2.9-2.8-2.9c-1.5,0-2.8,0.9-2.8,2.9V105.1z"/>
		<path d="M268,83.1h4.1v24.7h8.2v4.1h-12.3L268,83.1L268,83.1z"/>
		<path d="M283,83.1h4.1v24.7h8.2v4.1H283V83.1L283,83.1z"/>
		<path d="M297.8,89.9c0-4.7,3.6-7,6.9-7s6.9,2.3,6.9,7v15.2c0,4.7-3.6,7-6.9,7c-3.4,0-6.9-2.3-6.9-7V89.9z M301.9,105.1
			c0,2,1.3,2.9,2.8,2.9s2.8-0.9,2.8-2.9V89.9c0-2-1.3-2.9-2.8-2.9s-2.8,0.9-2.8,2.9V105.1z"/>
		<path d="M322.8,83.1h6.1c4.7,0,7.2,2.8,7.2,7.4V104c0,5.3-2.8,7.9-7.6,7.9h-5.8L322.8,83.1L322.8,83.1z M326.9,108h1.9
			c2.3,0,3.2-1.1,3.2-3.6V90.5c0-2.3-0.8-3.6-3.2-3.6h-1.9V108z"/>
		<path d="M340,83.1h12.3V87h-8.2v8.5h7.1v3.9h-7.1v8.5h8.2v4.1H340V83.1z"/>
		<path d="M362.7,83.1h4.1v28.8h-4.1V83.1z"/>
		<path d="M370.6,83.1h4l6.2,17.4h0.1V83.1h4.1v28.8h-3.9l-6.3-17.3h-0.1v17.3h-4.1L370.6,83.1L370.6,83.1z"/>
		<path d="M391.5,87h-4.8v-3.9h13.7V87h-4.8v24.9h-4.1V87z"/>
		<path d="M402.2,83.1h12.3V87h-8.2v8.5h7.1v3.9h-7.1v8.5h8.2v4.1h-12.3V83.1z"/>
		<path d="M417.2,83.1h6.6c4.9,0,7.3,2.9,7.3,8.5c0,3.3-0.9,5.7-3.6,7.2l4.5,13.2h-4.4l-3.8-12.3h-2.5v12.3h-4.1L417.2,83.1
			L417.2,83.1z M421.3,96h2.3c2.9,0,3.3-1.6,3.3-4.5c0-2.9-0.5-4.5-3.5-4.5h-2.2V96L421.3,96z"/>
		<path d="M434.5,83.1h12.3V87h-8.2v8.7h7.1v3.9h-7.1v12.3h-4.1L434.5,83.1L434.5,83.1z"/>
		<path d="M452,83.1h3.4l6.4,28.8h-4.1l-1.2-6.2h-5.6l-1.2,6.2h-4.1L452,83.1z M453.7,91.4L453.7,91.4l-2.1,10.4h4.1L453.7,91.4z"/>
		<path d="M477,105.5c0,3.6-2.9,6.7-6.6,6.7c-3.2,0-6.8-1.5-6.8-6.8V89.5c0-3.8,2.7-6.6,6.7-6.6c3.8,0,6.6,2.9,6.6,6.9v1.6h-4.1V90
			c0-1.6-1-3-2.5-3c-2.1,0-2.5,1.4-2.5,3.4v14.7c0,1.7,0.7,3,2.5,3c1.1,0,2.6-0.7,2.6-2.9v-1.4h4.1L477,105.5L477,105.5z"/>
		<path d="M480.4,83.1h12.3V87h-8.2v8.5h7.1v3.9h-7.1v8.5h8.2v4.1h-12.3V83.1z"/>
		<path d="M508.7,91.4h-4.1v-0.9c0-1.9-0.8-3.5-2.9-3.5c-2.3,0-2.8,1.8-2.8,3.7c0,2.2,0.2,3,2.3,3.8l3.2,1.3
			c3.6,1.4,4.3,3.7,4.3,7.9c0,4.9-1.8,8.5-7.1,8.5c-4,0-7-3-7-6.8v-1.5h4.1v1.3c0,1.5,0.8,3,2.9,3c2.8,0,3-1.7,3-4.3
			c0-3.1-0.4-3.6-2.4-4.4l-3-1.2c-3.6-1.5-4.5-3.8-4.5-7.4c0-4.4,2.3-7.9,7.1-7.9c4.1,0,6.9,3.3,6.9,6.5L508.7,91.4L508.7,91.4z"/>
		<path d="M536.4,111.9h-3.9l-3.2-18.7h-0.1l-3.1,18.7h-3.9L518,83.1h4.4l2.1,18.3h0.1l3.2-18.3h3.2l3.4,18.7h0.1l2-18.7h4.4
			L536.4,111.9z"/>
		<path d="M543.3,83.1h12.3V87h-8.2v8.5h7.1v3.9h-7.1v8.5h8.2v4.1h-12.3V83.1z"/>
		<path d="M558.3,83.1h6c5.3,0,7.3,3.5,7.3,7.3v1.1c0,3.1-1,4.2-2.8,5.3c1.9,0.9,2.8,2.7,2.8,5.7v1.6c0,5-2.4,7.8-7.7,7.8h-5.6
			L558.3,83.1L558.3,83.1z M562.4,94.9h1.9c2.8,0,3.5-1.4,3.5-4.1c0-2.6-0.9-3.9-3.6-3.9h-1.7L562.4,94.9L562.4,94.9z M562.4,107.8
			h1.8c3.3,0,3.6-2,3.6-4.8c0-2.9-0.5-4.4-3.5-4.4h-1.8V107.8z"/>
	</g>
</g>
</svg>
