<?xml version="1.0" encoding="utf-8"?>
<!-- Generator: Adobe Illustrator 25.4.1, SVG Export Plug-In . SVG Version: 6.00 Build 0)  -->
<svg version="1.1" id="Capa_1" xmlns="http://www.w3.org/2000/svg" xmlns:xlink="http://www.w3.org/1999/xlink" x="0px" y="0px"
	 viewBox="0 0 694 195" style="enable-background:new 0 0 694 195;" xml:space="preserve">
<style type="text/css">
	.st0{clip-path:url(#SVGID_00000140009480392931374840000014089235138016067502_);fill:#942E36;}
</style>
<g>
	<g>
		<defs>
			<rect id="SVGID_1_" x="61.17" y="43.91" width="107.19" height="107.19"/>
		</defs>
		<clipPath id="SVGID_00000162339220069465155240000005524183639601454751_">
			<use xlink:href="#SVGID_1_"  style="overflow:visible;"/>
		</clipPath>
		<path style="clip-path:url(#SVGID_00000162339220069465155240000005524183639601454751_);fill:#942E36;" d="M64.29,115.5
			c-0.29-0.78-0.54-1.61-0.78-2.39l66.9-66.9c0.78,0.24,1.61,0.49,2.39,0.78L64.29,115.5z M122.6,44.49
			c-0.93-0.15-1.91-0.25-2.83-0.34l-58.36,58.36c0.1,0.93,0.2,1.9,0.34,2.83L122.6,44.49z M145.35,53.48
			c-0.63-0.44-1.27-0.88-1.9-1.27l-73.98,73.98c0.39,0.63,0.83,1.27,1.27,1.9L145.35,53.48z M137.3,48.84
			c-0.73-0.34-1.47-0.68-2.2-0.98l-69.93,69.93c0.29,0.73,0.63,1.47,0.98,2.2L137.3,48.84z M141.45,51.04
			c-0.68-0.39-1.37-0.78-2.05-1.12l-72.27,72.27c0.34,0.68,0.73,1.37,1.12,2.05L141.45,51.04z M93.25,48.4
			c-2.29,1.02-4.54,2.2-6.69,3.52L69.17,69.3c-1.37,2.15-2.54,4.39-3.52,6.69L93.25,48.4z M113.61,43.91L61.17,96.35
			c0,1.07,0,2.1,0.05,3.17l55.52-55.57C115.71,43.91,114.64,43.91,113.61,43.91 M168.36,97.23l-53.86,53.86c1.07,0,2.2,0,3.27-0.1
			l50.49-50.49C168.3,99.43,168.36,98.31,168.36,97.23 M148.97,56.26c-0.59-0.49-1.17-0.98-1.76-1.42l-75.11,75.1
			c0.44,0.59,0.93,1.17,1.42,1.76L148.97,56.26z M110.24,44.1c-1.22,0.1-2.39,0.24-3.61,0.44L61.8,89.37
			c-0.19,1.22-0.34,2.39-0.44,3.62L110.24,44.1z M102.72,45.27c-1.47,0.34-2.93,0.73-4.39,1.22L63.71,81.07
			c-0.44,1.47-0.88,2.88-1.22,4.39L102.72,45.27z M127.87,45.52c-0.88-0.19-1.71-0.39-2.59-0.59l-63.09,63.09
			c0.2,0.88,0.39,1.71,0.59,2.59L127.87,45.52z M167.38,107.73c0.25-1.27,0.44-2.49,0.59-3.76l-46.73,46.73
			c1.27-0.15,2.54-0.34,3.76-0.59L167.38,107.73z M168.26,94.16c-0.05-0.98-0.15-1.95-0.24-2.93l-59.53,59.48
			c0.98,0.1,1.95,0.2,2.93,0.25L168.26,94.16z M167.57,88.44c-0.15-0.88-0.34-1.76-0.54-2.64l-64.02,63.97
			c0.88,0.2,1.76,0.39,2.64,0.54L167.57,88.44z M152.29,59.24c-0.54-0.54-1.07-1.03-1.61-1.56l-75.69,75.69
			c0.49,0.54,1.02,1.08,1.56,1.61L152.29,59.24z M155.42,132.39c2.69-3.12,4.93-6.45,6.79-9.96l-22.51,22.51
			c3.52-1.85,6.84-4.1,9.96-6.79L155.42,132.39z M166.4,83.26c-0.25-0.83-0.49-1.61-0.73-2.44l-67.58,67.58
			c0.83,0.24,1.61,0.49,2.44,0.73L166.4,83.26z M164.84,116.67c0.59-1.56,1.12-3.13,1.56-4.74l-37.21,37.21
			c1.61-0.44,3.17-0.98,4.74-1.56L164.84,116.67z M158.2,66.08c-0.44-0.59-0.88-1.22-1.37-1.81l-75.3,75.25
			c0.59,0.49,1.22,0.93,1.81,1.37L158.2,66.08z M164.84,78.48c-0.29-0.78-0.59-1.51-0.93-2.25L93.44,146.7
			c0.73,0.34,1.52,0.63,2.25,0.93L164.84,78.48z M155.37,62.51c-0.49-0.59-0.98-1.12-1.52-1.66l-75.74,75.74
			c0.54,0.54,1.12,1.02,1.66,1.51L155.37,62.51z M160.69,69.88c-0.39-0.63-0.78-1.32-1.22-1.95l-74.28,74.28
			c0.64,0.44,1.27,0.83,1.95,1.22L160.69,69.88z M162.93,74.04c-0.34-0.68-0.68-1.42-1.07-2.1L89.2,144.6
			c0.68,0.39,1.37,0.73,2.1,1.08L162.93,74.04z"/>
	</g>
	<g>
		<path d="M212.32,83.09h6.11c4.65,0,7.24,2.79,7.24,7.44v13.48c0,5.34-2.75,7.89-7.61,7.89h-5.75V83.09z M216.45,108.02h1.9
			c2.31,0,3.2-1.13,3.2-3.6V90.54c0-2.26-0.77-3.56-3.2-3.56h-1.9V108.02z"/>
		<path d="M229.57,83.09h12.3v3.88h-8.17v8.46h7.12v3.88h-7.12v8.46h8.17v4.13h-12.3V83.09z"/>
		<path d="M257.91,91.39h-4.13v-0.93c0-1.9-0.81-3.48-2.91-3.48c-2.27,0-2.79,1.82-2.79,3.72c0,2.22,0.2,2.99,2.35,3.84l3.15,1.26
			c3.64,1.38,4.33,3.68,4.33,7.89c0,4.86-1.78,8.46-7.12,8.46c-4.01,0-7.04-2.96-7.04-6.84v-1.54h4.13v1.29
			c0,1.5,0.81,2.96,2.91,2.96c2.79,0,2.99-1.66,2.99-4.29c0-3.07-0.36-3.56-2.39-4.37l-2.95-1.22c-3.56-1.46-4.49-3.8-4.49-7.4
			c0-4.37,2.35-7.89,7.08-7.89c4.13,0,6.88,3.32,6.88,6.51V91.39z"/>
		<path d="M265.57,83.09H269l6.44,28.81h-4.13l-1.21-6.19h-5.63l-1.21,6.19h-4.13L265.57,83.09z M267.31,91.39h-0.08l-2.02,10.44
			h4.13L267.31,91.39z"/>
		<path d="M277.47,83.09h6.64c4.9,0,7.29,2.87,7.29,8.46c0,3.32-0.93,5.74-3.56,7.2l4.45,13.15h-4.37l-3.84-12.3h-2.47v12.3h-4.13
			V83.09z M281.6,95.96h2.35c2.87,0,3.32-1.62,3.32-4.49c0-2.91-0.49-4.49-3.52-4.49h-2.15V95.96z"/>
		<path d="M294.72,83.09h6.64c4.9,0,7.28,2.87,7.28,8.46c0,3.32-0.93,5.74-3.56,7.2l4.45,13.15h-4.37l-3.84-12.3h-2.47v12.3h-4.13
			V83.09z M298.85,95.96h2.35c2.87,0,3.32-1.62,3.32-4.49c0-2.91-0.49-4.49-3.52-4.49h-2.15V95.96z"/>
		<path d="M311.73,89.89c0-4.7,3.56-7.04,6.92-7.04c3.36,0,6.92,2.35,6.92,7.04v15.22c0,4.69-3.56,7.04-6.92,7.04
			c-3.36,0-6.92-2.35-6.92-7.04V89.89z M315.85,105.11c0,1.98,1.29,2.91,2.79,2.91c1.5,0,2.79-0.93,2.79-2.91V89.89
			c0-1.98-1.29-2.91-2.79-2.91c-1.5,0-2.79,0.93-2.79,2.91V105.11z"/>
		<path d="M329.22,83.09h4.13v24.68h8.17v4.13h-12.3V83.09z"/>
		<path d="M344.2,83.09h4.13v24.68h8.17v4.13h-12.3V83.09z"/>
		<path d="M358.94,89.89c0-4.7,3.56-7.04,6.92-7.04c3.36,0,6.92,2.35,6.92,7.04v15.22c0,4.69-3.56,7.04-6.92,7.04
			c-3.36,0-6.92-2.35-6.92-7.04V89.89z M363.06,105.11c0,1.98,1.29,2.91,2.79,2.91c1.5,0,2.79-0.93,2.79-2.91V89.89
			c0-1.98-1.29-2.91-2.79-2.91c-1.5,0-2.79,0.93-2.79,2.91V105.11z"/>
		<path d="M383.96,83.09h6.11c4.65,0,7.24,2.79,7.24,7.44v13.48c0,5.34-2.75,7.89-7.61,7.89h-5.75V83.09z M388.08,108.02h1.9
			c2.31,0,3.2-1.13,3.2-3.6V90.54c0-2.26-0.77-3.56-3.2-3.56h-1.9V108.02z"/>
		<path d="M401.2,83.09h12.3v3.88h-8.17v8.46h7.12v3.88h-7.12v8.46h8.17v4.13h-12.3V83.09z"/>
		<path d="M423.84,83.09h4.13v28.81h-4.13V83.09z"/>
		<path d="M431.81,83.09h3.97l6.23,17.36h0.08V83.09h4.13v28.81h-3.88l-6.31-17.32h-0.08v17.32h-4.13V83.09z"/>
		<path d="M452.66,86.98h-4.78v-3.88h13.68v3.88h-4.77v24.93h-4.13V86.98z"/>
		<path d="M463.39,83.09h12.3v3.88h-8.17v8.46h7.12v3.88h-7.12v8.46h8.17v4.13h-12.3V83.09z"/>
		<path d="M478.38,83.09h6.64c4.9,0,7.29,2.87,7.29,8.46c0,3.32-0.93,5.74-3.56,7.2l4.45,13.15h-4.37l-3.84-12.3h-2.47v12.3h-4.13
			V83.09z M482.5,95.96h2.35c2.87,0,3.32-1.62,3.32-4.49c0-2.91-0.49-4.49-3.52-4.49h-2.15V95.96z"/>
		<path d="M495.62,83.09h12.3v3.88h-8.17v8.74h7.12v3.89h-7.12v12.3h-4.13V83.09z"/>
		<path d="M513.15,83.09h3.44l6.44,28.81h-4.13l-1.21-6.19h-5.63l-1.21,6.19h-4.13L513.15,83.09z M514.89,91.39h-0.08l-2.02,10.44
			h4.13L514.89,91.39z"/>
		<path d="M538.17,105.47c0,3.56-2.87,6.68-6.56,6.68c-3.16,0-6.8-1.54-6.8-6.8V89.49c0-3.76,2.71-6.64,6.72-6.64
			c3.8,0,6.64,2.87,6.64,6.88v1.62h-4.13v-1.37c0-1.62-0.97-3-2.55-3c-2.06,0-2.55,1.42-2.55,3.36v14.73c0,1.66,0.65,2.96,2.51,2.96
			c1.13,0,2.59-0.65,2.59-2.91v-1.42h4.13V105.47z"/>
		<path d="M541.54,83.09h12.3v3.88h-8.17v8.46h7.12v3.88h-7.12v8.46h8.17v4.13h-12.3V83.09z"/>
		<path d="M569.87,91.39h-4.13v-0.93c0-1.9-0.81-3.48-2.91-3.48c-2.27,0-2.79,1.82-2.79,3.72c0,2.22,0.2,2.99,2.35,3.84l3.15,1.26
			c3.64,1.38,4.33,3.68,4.33,7.89c0,4.86-1.78,8.46-7.12,8.46c-4.01,0-7.04-2.96-7.04-6.84v-1.54h4.13v1.29
			c0,1.5,0.81,2.96,2.91,2.96c2.79,0,2.99-1.66,2.99-4.29c0-3.07-0.36-3.56-2.39-4.37l-2.95-1.22c-3.56-1.46-4.49-3.8-4.49-7.4
			c0-4.37,2.35-7.89,7.08-7.89c4.13,0,6.88,3.32,6.88,6.51V91.39z"/>
		<path d="M597.61,111.91h-3.88l-3.16-18.7h-0.08l-3.12,18.7h-3.88l-4.29-28.81h4.37l2.06,18.29h0.08l3.24-18.29h3.16l3.36,18.74
			h0.08l1.98-18.74h4.37L597.61,111.91z"/>
		<path d="M604.5,83.09h12.3v3.88h-8.17v8.46h7.12v3.88h-7.12v8.46h8.17v4.13h-12.3V83.09z"/>
		<path d="M619.48,83.09h6.03c5.34,0,7.32,3.52,7.32,7.28v1.05c0,3.07-1.01,4.21-2.83,5.34c1.94,0.93,2.83,2.67,2.83,5.66v1.62
			c0,5.02-2.39,7.85-7.73,7.85h-5.62V83.09z M623.61,94.91h1.86c2.75,0,3.48-1.42,3.48-4.05c0-2.55-0.93-3.88-3.64-3.88h-1.7V94.91z
			 M623.61,107.78h1.78c3.32,0,3.56-2.02,3.56-4.85c0-2.87-0.53-4.37-3.52-4.37h-1.82V107.78z"/>
	</g>
</g>
</svg>
