<?xml version="1.0" encoding="utf-8"?>
<!-- Generator: Adobe Illustrator 26.0.3, SVG Export Plug-In . SVG Version: 6.00 Build 0)  -->
<svg version="1.1" id="Capa_1" xmlns="http://www.w3.org/2000/svg" xmlns:xlink="http://www.w3.org/1999/xlink" x="0px" y="0px"
	 viewBox="0 0 100 100" style="enable-background:new 0 0 100 100;" xml:space="preserve">
<style type="text/css">
	.st0{fill:#226B94;}
</style>
<g>
	<path class="st0" d="M97.97,25.78c-0.78,4.02-3.34,6.87-6.22,9.54c-1.49,1.38-2.9,2.85-4.35,4.28c-3.57,3.51-7.14,7.02-10.71,10.53
		c-2.05,2.02-4.1,2.02-6.12,0C64.6,44.15,58.63,38.18,52.66,32.2c-0.2-0.2-0.37-0.42-0.46-0.53C41.33,42.44,30.52,53.14,19.72,63.85
		c5.53,5.48,11,10.91,16.45,16.31c2.05-2.02,4.26-4.14,6.42-6.31c5.28-5.29,10.54-10.61,15.81-15.91c1.41-1.41,3.12-1.69,4.69-0.8
		c2.19,1.24,2.58,4.11,0.75,6.01c-1.87,1.94-3.79,3.82-5.68,5.73c-6.24,6.29-12.48,12.56-18.7,18.86c-0.88,0.89-1.87,1.5-3.08,1.84
		C26.68,92.3,17,95.06,7.32,97.81c-1.55,0.44-2.98,0.36-4.18-0.83c-1.19-1.18-1.31-2.61-0.88-4.17c2.75-9.82,5.47-19.64,8.25-29.44
		c0.23-0.8,0.7-1.63,1.29-2.22C30.02,42.83,48.27,24.54,66.5,6.22c2.15-2.16,4.66-3.61,7.63-4.28c1.13,0,2.25,0,3.38,0
		c1.26,0.43,2.59,0.7,3.76,1.31c6.2,3.23,10.91,8.08,14.61,13.92c0.99,1.56,1.42,3.48,2.1,5.24C97.97,23.53,97.97,24.66,97.97,25.78
		z M83.63,32.59c1.87-1.84,3.82-3.69,5.68-5.62c0.47-0.49,0.77-1.21,0.98-1.88c0.52-1.69-0.26-3.12-1.1-4.48
		c-1.84-2.99-4.32-5.43-6.97-7.68c-1.36-1.16-2.92-2.14-4.5-3c-1.63-0.89-3.37-0.67-4.7,0.6c-1.96,1.88-3.76,3.92-5.6,5.86
		C72.74,21.7,78.19,27.15,83.63,32.59z M78.01,38.05c-5.38-5.39-10.83-10.85-16.17-16.2c-1.42,1.41-2.91,2.88-4.33,4.3
		c5.38,5.38,10.81,10.81,16.3,16.29C75.18,41,76.63,39.49,78.01,38.05z M16.11,71.4c0.04-0.07-0.02,0-0.04,0.08
		c-0.91,3.24-1.84,6.47-2.71,9.72c-0.07,0.25,0.12,0.66,0.32,0.87c1.41,1.46,2.83,2.91,4.3,4.32c0.22,0.21,0.72,0.3,1.03,0.23
		c1.27-0.3,2.52-0.69,3.78-1.05c1.96-0.56,3.93-1.12,5.89-1.67C24.44,79.68,20.27,75.53,16.11,71.4z"/>
	<path class="st0" d="M97.97,95.06c-0.81,2.12-2.37,2.88-4.61,2.87c-14.61-0.05-29.22-0.03-43.83-0.03c-0.62,0-1.27,0.02-1.86-0.14
		c-1.77-0.46-2.98-2.26-2.75-3.97c0.27-1.99,1.78-3.4,3.73-3.41c4.72-0.02,9.45-0.01,14.17-0.01c10.14,0,20.27,0.04,30.41-0.03
		c2.27-0.02,3.86,0.71,4.74,2.84C97.97,93.81,97.97,94.43,97.97,95.06z"/>
</g>
</svg>
