<?xml version="1.0" encoding="utf-8"?>
<!-- Generator: Adobe Illustrator 26.0.3, SVG Export Plug-In . SVG Version: 6.00 Build 0)  -->
<svg version="1.1" id="Capa_1" xmlns="http://www.w3.org/2000/svg" xmlns:xlink="http://www.w3.org/1999/xlink" x="0px" y="0px"
	 viewBox="0 0 100 100" style="enable-background:new 0 0 100 100;" xml:space="preserve">
<style type="text/css">
	.st0{fill:#942F36;}
</style>
<g>
	<g>
		<g>
			<path class="st0" d="M31.2,75.04v4.64H17.81v4.19h-3.8V70.86h3.8v4.18H31.2z"/>
			<path class="st0" d="M31.2,58.2v10.2H14.02V58.2h3.72v5.56h2.7v-5.15h3.72v5.15h3.24V58.2H31.2z"/>
			<path class="st0" d="M31.2,47.71l-12.37,3.51v0.11c2.11-0.16,3.74-0.25,4.91-0.25h7.46v4.11H14.02v-6.18l12.2-3.58v-0.09
				l-12.2-3.51v-6.19H31.2v4.27h-7.53c-0.39,0-0.83-0.01-1.3-0.02c-0.48-0.01-1.65-0.06-3.51-0.16v0.11l12.35,3.47V47.71z"/>
			<path class="st0" d="M31.2,21.39l-3.22,0.85v5.58l3.22,0.87v5.1l-17.25-5.6v-6.19l17.25-5.68V21.39z M24.17,23.2l-2.82,0.74
				c-0.63,0.17-1.44,0.38-2.43,0.63c-0.99,0.25-1.71,0.41-2.14,0.49c0.4,0.07,1.06,0.21,1.97,0.42c0.92,0.21,2.72,0.67,5.42,1.38
				V23.2z"/>
		</g>
	</g>
	<g>
		<g>
			<path class="st0" d="M63.99,46.08c1.57-2.22,2.36-4.37,2.36-6.45c0-2.08-0.68-3.81-2.04-5.2c-1.37-1.39-3.12-2.09-5.25-2.09
				c-3.91,0-7.62,2.79-11.12,8.36l-11.12-6.58c2.91-4.51,6.09-7.92,9.56-10.23c3.47-2.31,7.89-3.47,13.25-3.47s10.08,1.7,14.14,5.11
				c4.06,3.41,6.09,8.05,6.09,13.92c0,3.2-0.81,6.27-2.45,9.21c-1.63,2.94-4.64,6.69-9.03,11.25L57.18,71.57h24.55v12.45H37.88V73.7
				l18.24-18.68C59.79,51.28,62.41,48.3,63.99,46.08z"/>
		</g>
		<g>
			<g>
				<path d="M85.15,81.51H41.29c-0.5,0-0.9-0.4-0.9-0.9V70.28c0-0.24,0.09-0.46,0.26-0.63l18.24-18.68
					c3.62-3.68,6.24-6.65,7.78-8.83l0,0c1.45-2.06,2.19-4.05,2.19-5.93c0-1.85-0.58-3.34-1.79-4.57c-1.2-1.22-2.71-1.82-4.6-1.82
					c-3.56,0-7.05,2.67-10.35,7.94c-0.26,0.41-0.81,0.54-1.23,0.3l-11.12-6.58c-0.21-0.12-0.36-0.33-0.42-0.57
					c-0.06-0.24-0.01-0.49,0.12-0.7c2.96-4.59,6.27-8.12,9.82-10.49c3.6-2.4,8.23-3.62,13.75-3.62c5.56,0,10.51,1.79,14.72,5.33
					c4.26,3.57,6.42,8.49,6.42,14.61c0,3.35-0.86,6.59-2.56,9.65c-1.66,2.99-4.75,6.84-9.17,11.44l-9.74,10.12h22.43
					c0.5,0,0.9,0.4,0.9,0.9V80.6C86.05,81.1,85.65,81.51,85.15,81.51z M42.2,79.7h42.05V69.06H60.6c-0.36,0-0.69-0.22-0.83-0.55
					c-0.14-0.33-0.07-0.72,0.18-0.98l11.21-11.66c4.31-4.48,7.3-8.21,8.89-11.07c1.55-2.78,2.33-5.73,2.33-8.77
					c0-5.64-1.89-9.97-5.77-13.23c-3.88-3.25-8.44-4.9-13.56-4.9c-5.16,0-9.45,1.12-12.75,3.32c-3.15,2.1-6.1,5.18-8.79,9.18
					l9.56,5.66c3.53-5.34,7.36-8.05,11.41-8.05c2.37,0,4.36,0.79,5.9,2.36c1.53,1.56,2.3,3.53,2.3,5.84c0,2.25-0.85,4.6-2.52,6.97
					c0,0,0,0,0,0c-1.6,2.26-4.28,5.3-7.97,9.05L42.2,70.65V79.7z M67.4,42.66h0.02H67.4z"/>
			</g>
		</g>
	</g>
</g>
</svg>
