<?xml version="1.0" encoding="utf-8"?>
<!-- Generator: Adobe Illustrator 26.0.3, SVG Export Plug-In . SVG Version: 6.00 Build 0)  -->
<svg version="1.1" id="Capa_1" xmlns="http://www.w3.org/2000/svg" xmlns:xlink="http://www.w3.org/1999/xlink" x="0px" y="0px"
	 viewBox="0 0 100 100" style="enable-background:new 0 0 100 100;" xml:space="preserve">
<style type="text/css">
	.st0{fill:#942F36;}
</style>
<g>
	<g>
		<g>
			<path class="st0" d="M36.19,69.33v3.6H25.8v3.26h-2.95V66.09h2.95v3.25H36.19z"/>
			<path class="st0" d="M36.19,56.26v7.92H22.86v-7.92h2.89v4.32h2.1v-4h2.89v4h2.52v-4.32H36.19z"/>
			<path class="st0" d="M36.19,48.11l-9.61,2.73v0.08c1.64-0.13,2.91-0.19,3.81-0.19h5.79v3.19H22.86v-4.8l9.47-2.78v-0.07
				l-9.47-2.73v-4.81h13.34v3.31h-5.85c-0.3,0-0.64,0-1.01-0.01c-0.37-0.01-1.28-0.05-2.73-0.12v0.08l9.59,2.69V48.11z"/>
			<path class="st0" d="M36.19,27.68l-2.5,0.66v4.33l2.5,0.68v3.96L22.8,32.95v-4.81l13.39-4.41V27.68z M30.74,29.08l-2.19,0.57
				c-0.49,0.13-1.12,0.3-1.89,0.49c-0.77,0.19-1.33,0.32-1.66,0.38c0.31,0.05,0.82,0.16,1.53,0.32c0.71,0.16,2.11,0.52,4.21,1.07
				V29.08z"/>
		</g>
	</g>
	<g>
		<g>
			<path class="st0" d="M70.86,26.96v9.45H51.55v8.18c1.45-0.42,3.1-0.63,4.97-0.63c4.71,0,8.77,1.42,12.17,4.27
				c3.41,2.85,5.11,6.68,5.11,11.51c0,4.83-1.76,8.81-5.28,11.96c-3.52,3.15-7.87,4.72-13.05,4.72c-6.62,0-12.15-2.45-16.58-7.35
				l5.74-7.98c0.42,0.42,0.98,0.93,1.68,1.54c0.7,0.61,1.98,1.41,3.85,2.41c1.86,1,3.73,1.5,5.6,1.5c1.86,0,3.52-0.56,4.97-1.68
				c1.45-1.12,2.17-2.78,2.17-4.97c0-2.19-0.78-3.88-2.34-5.07c-1.56-1.19-3.58-1.79-6.05-1.79c-2.47,0-5.34,0.89-8.61,2.66
				l-4.55-4.9V26.96H70.86z"/>
		</g>
		<g>
			<g>
				<path d="M58.16,74.46c-6.8,0-12.56-2.55-17.11-7.58c-0.23-0.25-0.25-0.62-0.05-0.89l5.74-7.98c0.12-0.17,0.31-0.28,0.52-0.29
					c0.21-0.01,0.41,0.06,0.56,0.21c0.41,0.41,0.96,0.91,1.64,1.5c0.65,0.57,1.9,1.35,3.72,2.33c1.75,0.94,3.52,1.42,5.26,1.42
					c1.72,0,3.2-0.5,4.53-1.53c1.27-0.99,1.89-2.43,1.89-4.41c0-1.98-0.68-3.45-2.06-4.51c-1.43-1.09-3.32-1.64-5.62-1.64
					c-2.34,0-5.12,0.86-8.27,2.57c-0.28,0.15-0.64,0.1-0.86-0.14l-4.55-4.9c-0.12-0.13-0.19-0.3-0.19-0.48V24.28
					c0-0.39,0.32-0.71,0.71-0.71h29.53c0.39,0,0.71,0.32,0.71,0.71v9.45c0,0.39-0.32,0.71-0.71,0.71h-18.6V41
					c1.28-0.28,2.71-0.43,4.26-0.43c4.86,0,9.11,1.49,12.63,4.43c3.56,2.97,5.36,7.03,5.36,12.06c0,5.02-1.86,9.22-5.52,12.49
					C68.04,72.81,63.49,74.46,58.16,74.46z M42.49,66.34c4.21,4.44,9.47,6.69,15.67,6.69c4.97,0,9.2-1.53,12.57-4.54
					c3.35-2.99,5.05-6.84,5.05-11.43c0-4.65-1.59-8.24-4.85-10.96c-3.26-2.72-7.2-4.1-11.72-4.1c-1.79,0-3.39,0.2-4.77,0.6
					c-0.22,0.06-0.45,0.02-0.63-0.11c-0.18-0.13-0.28-0.34-0.28-0.57v-8.18c0-0.39,0.32-0.71,0.71-0.71h18.6v-8.02H44.73v22.87
					l3.99,4.29c6.53-3.41,11.68-3.03,14.94-0.55c1.74,1.33,2.62,3.22,2.62,5.64c0,2.41-0.82,4.27-2.44,5.53
					c-3.11,2.4-7.38,2.37-11.34,0.24c-1.94-1.04-3.24-1.86-3.98-2.51c-0.42-0.36-0.79-0.7-1.11-1L42.49,66.34z"/>
			</g>
		</g>
	</g>
</g>
</svg>
