<?xml version="1.0" encoding="utf-8"?>
<!-- Generator: Adobe Illustrator 26.0.3, SVG Export Plug-In . SVG Version: 6.00 Build 0)  -->
<svg version="1.1" id="Capa_1" xmlns="http://www.w3.org/2000/svg" xmlns:xlink="http://www.w3.org/1999/xlink" x="0px" y="0px"
	 viewBox="0 0 100 100" style="enable-background:new 0 0 100 100;" xml:space="preserve">
<style type="text/css">
	.st0{fill:#942F36;}
</style>
<g>
	<g>
		<g>
			<path class="st0" d="M46.9,20.67h25.58v63.17H58.92V32.69H46.9V20.67z"/>
		</g>
		<g>
			<g>
				<path d="M75.94,81.29H62.39c-0.51,0-0.92-0.41-0.92-0.92V30.13h-11.1c-0.51,0-0.92-0.41-0.92-0.92V17.2
					c0-0.51,0.41-0.92,0.92-0.92h25.58c0.51,0,0.92,0.41,0.92,0.92v63.17C76.86,80.88,76.45,81.29,75.94,81.29z M63.3,79.45h11.72
					V18.11H51.28V28.3h11.1c0.51,0,0.92,0.41,0.92,0.92V79.45z"/>
			</g>
		</g>
	</g>
	<g>
		<path class="st0" d="M40.86,75v4.64H27.48v4.19h-3.8V70.82h3.8V75H40.86z"/>
		<path class="st0" d="M40.86,58.17v10.2H23.68v-10.2h3.72v5.56h2.7v-5.15h3.72v5.15h3.24v-5.56H40.86z"/>
		<path class="st0" d="M40.86,47.67l-12.37,3.51v0.11c2.11-0.16,3.74-0.25,4.91-0.25h7.46v4.11H23.68v-6.18l12.2-3.58V45.3
			l-12.2-3.51v-6.19h17.18v4.27h-7.53c-0.39,0-0.83-0.01-1.3-0.02c-0.48-0.01-1.65-0.06-3.51-0.16v0.11l12.35,3.47V47.67z"/>
		<path class="st0" d="M40.86,21.35l-3.22,0.85v5.58l3.22,0.87v5.1l-17.25-5.6v-6.19l17.25-5.68V21.35z M33.83,23.16l-2.82,0.74
			c-0.63,0.17-1.44,0.38-2.43,0.63c-0.99,0.25-1.71,0.41-2.14,0.49c0.4,0.07,1.06,0.21,1.97,0.42c0.92,0.21,2.72,0.67,5.42,1.38
			V23.16z"/>
	</g>
</g>
</svg>
