<?xml version="1.0" encoding="utf-8"?>
<!-- Generator: Adobe Illustrator 26.0.3, SVG Export Plug-In . SVG Version: 6.00 Build 0)  -->
<svg version="1.1" id="Capa_1" xmlns="http://www.w3.org/2000/svg" xmlns:xlink="http://www.w3.org/1999/xlink" x="0px" y="0px"
	 viewBox="0 0 100 100" style="enable-background:new 0 0 100 100;" xml:space="preserve">
<style type="text/css">
	.st0{fill:#942F36;}
</style>
<g>
	<g>
		<g>
			<path class="st0" d="M47.41,27.18h19.86v49.05H56.74V36.51h-9.33V27.18z"/>
		</g>
		<g>
			<g>
				<path d="M69.96,74.25H59.43c-0.39,0-0.71-0.32-0.71-0.71v-39H50.1c-0.39,0-0.71-0.32-0.71-0.71v-9.33
					c0-0.39,0.32-0.71,0.71-0.71h19.86c0.39,0,0.71,0.32,0.71,0.71v49.05C70.67,73.93,70.35,74.25,69.96,74.25z M60.15,72.82h9.1
					V25.2H50.81v7.91h8.62c0.39,0,0.71,0.32,0.71,0.71V72.82z"/>
			</g>
		</g>
	</g>
	<g>
		<path class="st0" d="M42.72,69.37v3.6H32.33v3.26h-2.95V66.12h2.95v3.25H42.72z"/>
		<path class="st0" d="M42.72,56.29v7.92H29.38v-7.92h2.89v4.32h2.1v-4h2.89v4h2.52v-4.32H42.72z"/>
		<path class="st0" d="M42.72,48.15l-9.61,2.73v0.08c1.64-0.13,2.91-0.19,3.81-0.19h5.79v3.19H29.38v-4.8l9.47-2.78v-0.07
			l-9.47-2.73v-4.81h13.34v3.31h-5.85c-0.3,0-0.64,0-1.01-0.01s-1.28-0.05-2.73-0.12v0.08l9.59,2.69V48.15z"/>
		<path class="st0" d="M42.72,27.71l-2.5,0.66v4.33l2.5,0.68v3.96l-13.39-4.35v-4.81l13.39-4.41V27.71z M37.26,29.12l-2.19,0.57
			c-0.49,0.13-1.12,0.3-1.89,0.49c-0.77,0.19-1.33,0.32-1.66,0.38c0.31,0.05,0.82,0.16,1.53,0.32c0.71,0.16,2.11,0.52,4.21,1.07
			V29.12z"/>
	</g>
</g>
</svg>
