<?xml version="1.0" encoding="utf-8"?>
<!-- Generator: Adobe Illustrator 26.0.3, SVG Export Plug-In . SVG Version: 6.00 Build 0)  -->
<svg version="1.1" id="Capa_1" xmlns="http://www.w3.org/2000/svg" xmlns:xlink="http://www.w3.org/1999/xlink" x="0px" y="0px"
	 viewBox="0 0 100 100" style="enable-background:new 0 0 100 100;" xml:space="preserve">
<style type="text/css">
	.st0{fill:#942F36;}
</style>
<g>
	<g>
		<g>
			<path class="st0" d="M30.37,75.05v4.64H16.99v4.19h-3.8V70.87h3.8v4.18H30.37z"/>
			<path class="st0" d="M30.37,58.21v10.2H13.19v-10.2h3.72v5.56h2.7v-5.15h3.72v5.15h3.24v-5.56H30.37z"/>
			<path class="st0" d="M30.37,47.72L18,51.23v0.11c2.11-0.16,3.74-0.25,4.91-0.25h7.46v4.11H13.19v-6.18l12.2-3.58v-0.09
				l-12.2-3.51v-6.19h17.18v4.27h-7.53c-0.39,0-0.83-0.01-1.3-0.02s-1.65-0.06-3.51-0.16v0.11l12.35,3.47V47.72z"/>
			<path class="st0" d="M30.37,21.4l-3.22,0.85v5.58l3.22,0.87v5.1l-17.25-5.6V22l17.25-5.68V21.4z M23.34,23.21l-2.82,0.74
				c-0.63,0.17-1.44,0.38-2.43,0.63c-0.99,0.25-1.71,0.41-2.14,0.49c0.4,0.07,1.06,0.21,1.97,0.42c0.92,0.21,2.72,0.67,5.42,1.38
				V23.21z"/>
		</g>
	</g>
	<g>
		<g>
			<path class="st0" d="M61.67,56.58V45.5h13.63v11.08h7.18v12.27h-7.18v15.17H61.67V68.84H36.14V58.03l22.62-37.52H74.2
				L52.67,56.58H61.67z"/>
		</g>
		<g>
			<g>
				<path d="M78.78,81.45H65.16c-0.51,0-0.92-0.41-0.92-0.92V66.28h-24.6c-0.51,0-0.92-0.41-0.92-0.92V54.54
					c0-0.17,0.05-0.33,0.13-0.48l22.62-37.52c0.17-0.28,0.47-0.45,0.79-0.45h15.44c0.33,0,0.64,0.18,0.8,0.47
					c0.16,0.29,0.16,0.64-0.01,0.93l-20.7,34.67h6.45V42.01c0-0.51,0.41-0.92,0.92-0.92h13.63c0.51,0,0.92,0.41,0.92,0.92v10.16
					h6.25c0.51,0,0.92,0.41,0.92,0.92v12.27c0,0.51-0.41,0.92-0.92,0.92H79.7v14.25C79.7,81.03,79.29,81.45,78.78,81.45z
					 M66.08,79.6h11.78V65.35c0-0.51,0.41-0.92,0.92-0.92h6.25V54.01h-6.25c-0.51,0-0.92-0.41-0.92-0.92V42.93H66.08v10.16
					c0,0.51-0.41,0.92-0.92,0.92h-8.99c-0.33,0-0.64-0.18-0.8-0.47c-0.16-0.29-0.16-0.64,0.01-0.93l20.7-34.67h-13.3L40.55,54.8
					v9.63h24.6c0.51,0,0.92,0.41,0.92,0.92V79.6z"/>
			</g>
		</g>
	</g>
</g>
</svg>
