<?xml version="1.0" encoding="utf-8"?>
<!-- Generator: Adobe Illustrator 26.0.3, SVG Export Plug-In . SVG Version: 6.00 Build 0)  -->
<svg version="1.1" id="Capa_1" xmlns="http://www.w3.org/2000/svg" xmlns:xlink="http://www.w3.org/1999/xlink" x="0px" y="0px"
	 viewBox="0 0 100 100" style="enable-background:new 0 0 100 100;" xml:space="preserve">
<style type="text/css">
	.st0{fill:#942F36;}
</style>
<g>
	<g>
		<g>
			<path class="st0" d="M34.76,69.4v3.6H24.37v3.26h-2.95V66.16h2.95v3.25H34.76z"/>
			<path class="st0" d="M34.76,56.33v7.92H21.42v-7.92h2.89v4.32h2.1v-4h2.89v4h2.52v-4.32H34.76z"/>
			<path class="st0" d="M34.76,48.18l-9.61,2.73v0.08c1.64-0.13,2.91-0.19,3.81-0.19h5.79V54H21.42v-4.8l9.47-2.78v-0.07l-9.47-2.73
				v-4.81h13.34v3.31h-5.85c-0.3,0-0.64,0-1.01-0.01s-1.28-0.05-2.73-0.12v0.08l9.59,2.69V48.18z"/>
			<path class="st0" d="M34.76,27.75l-2.5,0.66v4.33l2.5,0.68v3.96l-13.39-4.35v-4.81l13.39-4.41V27.75z M29.3,29.15l-2.19,0.57
				c-0.49,0.13-1.12,0.3-1.89,0.49c-0.77,0.19-1.33,0.32-1.66,0.38c0.31,0.05,0.82,0.16,1.53,0.32c0.71,0.16,2.11,0.52,4.21,1.07
				V29.15z"/>
		</g>
	</g>
	<g>
		<g>
			<path class="st0" d="M59.06,55.06v-8.6h10.58v8.6h5.57v9.52h-5.57v11.78H59.06V64.59H39.24v-8.39L56.8,27.06h11.99l-16.72,28
				H59.06z"/>
		</g>
		<g>
			<g>
				<path d="M72.35,74.37H61.77c-0.4,0-0.72-0.32-0.72-0.72V62.59h-19.1c-0.4,0-0.72-0.32-0.72-0.72v-8.39
					c0-0.13,0.04-0.26,0.1-0.37L58.9,23.98c0.13-0.22,0.36-0.35,0.61-0.35H71.5c0.26,0,0.5,0.14,0.62,0.36
					c0.13,0.22,0.12,0.5-0.01,0.72L56.05,51.64h5.01v-7.89c0-0.4,0.32-0.72,0.72-0.72h10.58c0.4,0,0.72,0.32,0.72,0.72v7.89h4.86
					c0.4,0,0.72,0.32,0.72,0.72v9.52c0,0.4-0.32,0.72-0.72,0.72h-4.86v11.06C73.06,74.05,72.74,74.37,72.35,74.37z M62.48,72.94
					h9.15V61.88c0-0.4,0.32-0.72,0.72-0.72h4.86v-8.09h-4.86c-0.4,0-0.72-0.32-0.72-0.72v-7.89h-9.15v7.89
					c0,0.4-0.32,0.72-0.72,0.72h-6.98c-0.26,0-0.5-0.14-0.62-0.36c-0.13-0.22-0.12-0.5,0.01-0.72l16.07-26.92H59.92L42.66,53.68
					v7.48h19.1c0.4,0,0.72,0.32,0.72,0.72V72.94z"/>
			</g>
		</g>
	</g>
</g>
</svg>
