<?xml version="1.0" encoding="utf-8"?>
<!-- Generator: Adobe Illustrator 26.0.3, SVG Export Plug-In . SVG Version: 6.00 Build 0)  -->
<svg version="1.1" id="Capa_1" xmlns="http://www.w3.org/2000/svg" xmlns:xlink="http://www.w3.org/1999/xlink" x="0px" y="0px"
	 viewBox="0 0 100 100" style="enable-background:new 0 0 100 100;" xml:space="preserve">
<style type="text/css">
	.st0{fill:#942F36;}
</style>
<g>
	<g>
		<g>
			<path class="st0" d="M35.4,69.4V73H25.01v3.26h-2.95V66.15h2.95v3.25H35.4z"/>
			<path class="st0" d="M35.4,56.32v7.92H22.06v-7.92h2.89v4.32h2.1v-4h2.89v4h2.52v-4.32H35.4z"/>
			<path class="st0" d="M35.4,48.18l-9.61,2.73v0.08c1.64-0.13,2.91-0.19,3.81-0.19h5.79v3.19H22.06v-4.8l9.47-2.78v-0.07
				l-9.47-2.73V38.8H35.4v3.31h-5.85c-0.3,0-0.64,0-1.01-0.01c-0.37-0.01-1.28-0.05-2.73-0.12v0.08l9.59,2.69V48.18z"/>
			<path class="st0" d="M35.4,27.74l-2.5,0.66v4.33l2.5,0.68v3.96l-13.39-4.35v-4.81L35.4,23.8V27.74z M29.94,29.15l-2.19,0.57
				c-0.49,0.13-1.12,0.3-1.89,0.49c-0.77,0.19-1.33,0.32-1.66,0.38c0.31,0.05,0.82,0.16,1.53,0.32c0.71,0.16,2.11,0.52,4.21,1.07
				V29.15z"/>
		</g>
	</g>
	<g>
		<g>
			<path class="st0" d="M60.86,46.91c1.22-1.73,1.83-3.4,1.83-5.01c0-1.61-0.53-2.96-1.59-4.04c-1.06-1.08-2.42-1.62-4.08-1.62
				c-3.04,0-5.92,2.17-8.63,6.49l-8.63-5.11c2.26-3.5,4.73-6.15,7.43-7.94c2.69-1.8,6.12-2.69,10.29-2.69s7.83,1.32,10.98,3.97
				c3.15,2.65,4.73,6.25,4.73,10.81c0,2.49-0.63,4.87-1.9,7.15c-1.27,2.28-3.6,5.19-7.01,8.74l-8.7,9.05h19.06v9.67H40.59v-8.01
				l14.16-14.5C57.6,50.95,59.64,48.64,60.86,46.91z"/>
		</g>
		<g>
			<g>
				<path d="M77.29,74.42H43.24c-0.39,0-0.7-0.31-0.7-0.7v-8.01c0-0.18,0.07-0.36,0.2-0.49l14.16-14.5
					c2.81-2.86,4.85-5.17,6.04-6.86l0,0c1.13-1.6,1.7-3.15,1.7-4.6c0-1.43-0.45-2.6-1.39-3.55c-0.93-0.95-2.1-1.41-3.57-1.41
					c-2.77,0-5.47,2.07-8.04,6.16c-0.2,0.32-0.63,0.42-0.95,0.23l-8.63-5.11c-0.16-0.1-0.28-0.26-0.33-0.44
					c-0.04-0.18-0.01-0.38,0.09-0.54c2.3-3.57,4.86-6.31,7.63-8.15c2.8-1.87,6.39-2.81,10.68-2.81c4.32,0,8.16,1.39,11.43,4.14
					c3.31,2.77,4.98,6.59,4.98,11.35c0,2.6-0.67,5.12-1.99,7.49c-1.29,2.32-3.69,5.31-7.12,8.88l-7.56,7.86h17.42
					c0.39,0,0.7,0.31,0.7,0.7v9.67C77.99,74.11,77.68,74.42,77.29,74.42z M43.94,73.02h32.65v-8.26H58.23
					c-0.28,0-0.54-0.17-0.65-0.43c-0.11-0.26-0.06-0.56,0.14-0.76l8.7-9.05c3.35-3.48,5.67-6.37,6.9-8.59
					c1.2-2.16,1.81-4.45,1.81-6.81c0-4.38-1.47-7.74-4.48-10.27c-3.01-2.53-6.55-3.81-10.53-3.81c-4.01,0-7.34,0.87-9.9,2.58
					c-2.44,1.63-4.74,4.02-6.82,7.13l7.42,4.39c2.74-4.15,5.72-6.25,8.86-6.25c1.84,0,3.38,0.62,4.58,1.83
					c1.19,1.21,1.79,2.74,1.79,4.53c0,1.75-0.66,3.57-1.96,5.41c0,0,0,0,0,0c-1.24,1.75-3.32,4.12-6.18,7.03l-13.96,14.3V73.02z
					 M63.51,44.26h0.02H63.51z"/>
			</g>
		</g>
	</g>
</g>
</svg>
