<?xml version="1.0" encoding="utf-8"?>
<!-- Generator: Adobe Illustrator 26.0.3, SVG Export Plug-In . SVG Version: 6.00 Build 0)  -->
<svg version="1.1" id="Capa_1" xmlns="http://www.w3.org/2000/svg" xmlns:xlink="http://www.w3.org/1999/xlink" x="0px" y="0px"
	 viewBox="0 0 100 100" style="enable-background:new 0 0 100 100;" xml:space="preserve">
<style type="text/css">
	.st0{fill:#942F36;}
</style>
<g>
	<g>
		<g>
			<path class="st0" d="M36.64,69.28v3.6H26.25v3.26h-2.95V66.04h2.95v3.25H36.64z"/>
			<path class="st0" d="M36.64,56.21v7.92H23.31v-7.92h2.89v4.32h2.1v-4h2.89v4h2.52v-4.32H36.64z"/>
			<path class="st0" d="M36.64,48.06l-9.61,2.73v0.08c1.64-0.13,2.91-0.19,3.81-0.19h5.79v3.19H23.31v-4.8l9.47-2.78v-0.07
				l-9.47-2.73v-4.81h13.34V42H30.8c-0.3,0-0.64,0-1.01-0.01s-1.28-0.05-2.73-0.12v0.08l9.59,2.69V48.06z"/>
			<path class="st0" d="M36.64,27.63l-2.5,0.66v4.33l2.5,0.68v3.96L23.25,32.9v-4.81l13.39-4.41V27.63z M31.19,29.03L29,29.61
				c-0.49,0.13-1.12,0.3-1.89,0.49s-1.33,0.32-1.66,0.38c0.31,0.05,0.82,0.16,1.53,0.32c0.71,0.16,2.11,0.52,4.21,1.07V29.03z"/>
		</g>
	</g>
	<g>
		<g>
			<path class="st0" d="M41.39,36.49v-9.23h29.7v7.49l-9.92,11.31c3.89,0.65,6.89,2.28,9.02,4.89c2.13,2.61,3.19,5.63,3.19,9.06
				c0,5.09-1.72,9.08-5.17,11.97c-3.45,2.89-7.85,4.34-13.22,4.34c-5.37,0-10.8-1.9-16.31-5.69l4.44-8.6
				c4.58,3.24,8.67,4.86,12.28,4.86c2.17,0,3.97-0.53,5.38-1.6c1.41-1.06,2.12-2.6,2.12-4.61c0-2.01-0.81-3.61-2.43-4.79
				c-1.62-1.18-3.86-1.77-6.73-1.77c-1.53,0-3.68,0.44-6.45,1.32v-7.98l9.3-10.96H41.39z"/>
		</g>
		<g>
			<g>
				<path d="M57.66,74.36c-5.49,0-11.11-1.96-16.71-5.81c-0.29-0.2-0.39-0.59-0.23-0.9l4.44-8.6c0.09-0.18,0.26-0.31,0.46-0.36
					c0.2-0.05,0.41-0.01,0.57,0.11c4.44,3.14,8.43,4.73,11.88,4.73c2.01,0,3.67-0.49,4.95-1.45c1.23-0.93,1.84-2.26,1.84-4.05
					c0-1.79-0.7-3.17-2.14-4.22c-1.49-1.08-3.61-1.63-6.32-1.63c-1.44,0-3.54,0.43-6.24,1.28c-0.21,0.07-0.45,0.03-0.63-0.1
					c-0.18-0.13-0.29-0.34-0.29-0.57v-7.98c0-0.17,0.06-0.33,0.17-0.46l8.31-9.8H44.06c-0.39,0-0.7-0.32-0.7-0.71v-9.23
					c0-0.39,0.32-0.71,0.7-0.71h29.7c0.39,0,0.7,0.32,0.7,0.71v7.49c0,0.17-0.06,0.34-0.17,0.46l-9.12,10.39
					c3.47,0.8,6.23,2.44,8.23,4.9c2.22,2.73,3.35,5.93,3.35,9.5c0,5.28-1.82,9.49-5.42,12.51C67.77,72.84,63.17,74.36,57.66,74.36z
					 M42.26,67.73c5.19,3.46,10.36,5.21,15.39,5.21c5.17,0,9.47-1.4,12.76-4.17c3.26-2.74,4.92-6.59,4.92-11.43
					c0-3.24-1.02-6.14-3.03-8.61c-2.01-2.46-4.9-4.02-8.59-4.64c-0.25-0.04-0.46-0.22-0.55-0.46c-0.09-0.24-0.04-0.51,0.13-0.7
					l9.75-11.11V25.3H44.76v7.82h14.49c0.27,0,0.52,0.16,0.64,0.41c0.11,0.25,0.08,0.54-0.1,0.75l-9.13,10.77v6.77
					c2.43-0.72,4.31-1.07,5.75-1.07c3.01,0,5.41,0.64,7.15,1.9c1.8,1.32,2.72,3.12,2.72,5.36c0,2.24-0.81,3.98-2.4,5.18
					c-1.53,1.15-3.48,1.74-5.8,1.74c-3.56,0-7.61-1.52-12.02-4.52L42.26,67.73z"/>
			</g>
		</g>
	</g>
</g>
</svg>
